<?xml version="1.0" encoding="UTF-8" standalone="no"?>
<svg width="750px" height="650px" viewBox="0 0 750 650" version="1.1" xmlns="http://www.w3.org/2000/svg" xmlns:xlink="http://www.w3.org/1999/xlink" style="background: #EBFFD8;">
    <!-- Generator: Sketch 49 (51002) - http://www.bohemiancoding.com/sketch -->
    <title>Artboard 15 Copy 2</title>
    <desc>Created with Sketch.</desc>
    <defs>
        <linearGradient x1="43.3515985%" y1="23.873562%" x2="50%" y2="100%" id="linearGradient-1">
            <stop stop-color="#AEF5FF" offset="0%"></stop>
            <stop stop-color="#1A8EDE" offset="100%"></stop>
        </linearGradient>
        <linearGradient x1="50%" y1="69.2309975%" x2="50%" y2="23.555041%" id="linearGradient-2">
            <stop stop-color="#FFFCFC" stop-opacity="0.369735054" offset="0%"></stop>
            <stop stop-color="#000000" offset="100%"></stop>
        </linearGradient>
        <linearGradient x1="35.7409094%" y1="235.142226%" x2="22.786771%" y2="-8.33372626%" id="linearGradient-3">
            <stop stop-color="#492D11" offset="0%"></stop>
            <stop stop-color="#3D230D" offset="100%"></stop>
        </linearGradient>
    </defs>
    <g id="Artboard-15-Copy-2" stroke="none" stroke-width="1" fill="none" fill-rule="evenodd">
        <g id="Board" transform="translate(489.000000, -110.000000)">
            <polygon id="Path-215" stroke="#DDDDDD" stroke-width="4.1" fill="#FFFFFF" points="-2.84217094e-14 26.2156863 18.1854482 325 297 293.240122 286.893498 0"></polygon>
            <path d="M48,201.287277 C48,229.459104 48.9881609,265.221055 66.2136476,290.670788 C68.1356151,293.510392 74.4771646,290.961683 78.5834685,290.670788 C88.9039081,289.939675 99.25022,289.148474 109.423041,287.609783 C128.399221,284.739538 146.908261,280.135065 165.931214,277.458991 C176.749772,275.937079 197.430434,277.410485 198.766069,275.041359 C204.645117,264.613215 187.833376,253.914652 183.655936,243.017705 C179.606999,232.455961 176.781283,221.620787 174.135854,210.792883 C172.094054,202.435673 177.698123,191.235384 169.60747,185.516488 C161.900591,180.068864 148.773213,185.099646 138.376757,185.516488 C110.004013,186.654081 81.7942663,193.30519 54.5469483,198.084911 L48,201.287277 Z" id="Path-218" stroke="#979797" stroke-width="0.82"></path>
            <path d="M42.4170743,110.887395 C42.4170743,124.824191 41.4786571,138.797046 42.4170743,152.697784 C42.8155775,158.600796 41.0802123,168.283244 46.4032971,169.935157 C60.7899628,174.399771 100.971947,170.962852 120.610726,165.905968 C127.121426,164.229497 138.25296,166.173003 139.692704,159.189814 C141.927646,148.34968 131.337689,138.798035 128.394475,128.152469 C126.22723,120.313572 125.75429,112.050823 124.434198,104" id="Path-219" stroke="#979797" stroke-width="0.82"></path>
            <path d="M96.073255,169 C96.073255,178.940589 95.0082252,173.526399 101,185" id="Path-220" stroke="#979797" stroke-width="0.82"></path>
            <path d="M93,183.089029 C104.698947,185.404227 100.915789,187.088728 105,179" id="Path-221" stroke="#979797" stroke-width="0.82"></path>
            <path d="M184,232 C234.847711,227.977426 210.554855,231.502973 257,222" id="Path-222" stroke="#979797" stroke-width="0.82"></path>
            <path d="M251,215 C264.98892,219.756612 262.192421,215.824085 255.366469,228" id="Path-223" stroke="#979797" stroke-width="0.82"></path>
            <path d="M233,113 C223.429716,146.90142 209.998022,174.012947 184,203" id="Path-224" stroke="#979797" stroke-width="0.82"></path>
            <path d="M182,195 C183.879763,207.155964 179.744255,204.317552 196,201.756669" id="Path-225" stroke="#979797" stroke-width="0.82"></path>
            <text id="ProductId" transform="translate(94.500000, 204.500000) rotate(-7.000000) translate(-94.500000, -204.500000) " font-family="phitradesignHandwrittenThin, phitradesign Handwritten Thin" font-size="14.76" font-style="condensed" font-weight="normal" fill="#444444">
                <tspan x="57" y="210">ProductId</tspan>
            </text>
            <text id="CartId" transform="translate(77.215151, 126.461014) rotate(-7.000000) translate(-77.215151, -126.461014) " font-family="phitradesignHandwrittenThin, phitradesign Handwritten Thin" font-size="14.76" font-style="condensed" font-weight="normal" fill="#444444">
                <tspan x="52.2151512" y="131.961014">CartId</tspan>
            </text>
            <text id="CartList" transform="translate(87.000000, 150.500000) rotate(-7.000000) translate(-87.000000, -150.500000) " font-family="phitradesignHandwrittenThin, phitradesign Handwritten Thin" font-size="14.76" font-style="condensed" font-weight="normal" fill="#444444">
                <tspan x="55" y="156">CartList</tspan>
            </text>
            <text id="ProductName" transform="translate(115.000000, 225.500000) rotate(-7.000000) translate(-115.000000, -225.500000) " font-family="phitradesignHandwrittenThin, phitradesign Handwritten Thin" font-size="14.76" font-style="condensed" font-weight="normal" fill="#444444">
                <tspan x="60" y="231">ProductName</tspan>
            </text>
            <text id="ProductSKU" transform="translate(109.500000, 248.500000) rotate(-7.000000) translate(-109.500000, -248.500000) " font-family="phitradesignHandwrittenThin, phitradesign Handwritten Thin" font-size="14.76" font-style="condensed" font-weight="normal" fill="#444444">
                <tspan x="61" y="254">ProductSKU</tspan>
            </text>
            <text id="ProductVendor" transform="translate(125.000000, 269.500000) rotate(-7.000000) translate(-125.000000, -269.500000) " font-family="phitradesignHandwrittenThin, phitradesign Handwritten Thin" font-size="14.76" font-style="condensed" font-weight="normal" fill="#444444">
                <tspan x="65" y="275">ProductVendor</tspan>
            </text>
        </g>
        <g id="Window" transform="translate(-61.000000, -79.000000)">
            <polygon id="Path-108" fill="url(#linearGradient-1)" points="29.9825813 371 503 290.677709 487.83995 0 5 78.067879"></polygon>
            <g id="Group" transform="translate(278.482550, 249.499695) rotate(2.000000) translate(-278.482550, -249.499695) translate(50.982550, 127.999695)">
                <path d="M38.5847952,240.866435 L28.8851613,134.366723 C33.9226088,133.36541 36.7549975,132.164278 37.3823272,130.763328 C39.2304212,126.636172 35.3755788,120.220123 36.9649003,119.800621 C38.0403818,119.516747 43.5774396,115.927318 46.8811352,116.721809 C48.517321,117.115288 47.0338255,124.506673 50.0739822,126.667567 C51.4035246,127.612584 54.973808,127.372323 60.7848322,125.946785 L76.5457314,235.784664" id="Path-109" fill="#CEC2D4"></path>
                <path d="M67.4699565,234.667904 L57.7703226,133.480813 C62.8077701,132.529449 65.6401587,131.388234 66.2674885,130.057169 C68.1155825,126.135892 64.2607401,120.039901 65.8500616,119.641325 C66.9255431,119.371611 72.4626009,115.961237 75.7662965,116.716096 C77.4024823,117.089946 75.9189867,124.11262 78.9591435,126.165721 C80.2886859,127.063597 83.8589693,126.835321 89.6699935,125.480894 L102.52446,227.713359" id="Path-109-Copy-5" fill="#C7CAB9"></path>
                <polyline id="Path-109-Copy-3" fill="#DACACA" points="266.737686 192.29733 247.930968 45.2217952 302.931366 38.5057856 327.004006 181.103292"></polyline>
                <path d="M154.140079,210.43548 L143.222258,58.9809674 L154.414627,33.2267812 L152.828515,19.1255098 C154.060239,18.5448327 154.750364,18.5199257 154.898888,19.050789 C155.047413,19.5816523 155.676604,24.3221021 156.78646,33.2721383 L174.783863,51.412626 L190.956252,210.43548" id="Path-109-Copy" fill="#DED7CB"></path>
                <polyline id="Path-109-Copy-4" fill="#E3E2E2" points="97.2731334 218.587333 86.6554839 106.969831 99.5750533 83.1352129 118.091165 98.8677277 134.089306 218.587333"></polyline>
                <polyline id="Path-109-Copy-2" fill="#ACB5C9" points="201.509449 207.299449 184.142903 86.7413641 223.459161 78.1763877 240.950653 197.294654"></polyline>
                <polygon id="Path-110" fill="#BECABD" transform="translate(371.336466, 90.052084) rotate(2.000000) translate(-371.336466, -90.052084) " points="354.718191 179.129958 344.809683 48.0218711 353.824568 37.8230658 351.064744 16.1871027 358.510946 14.8824461 357.901229 3.02684998 364.270949 0.974210117 366.169138 11.6258508 373.706246 10.4160814 374.883943 32.93339 385.233841 39.7629463 397.863248 169.431192"></polygon>
                <polyline id="Path-112" fill="#CBB3B3" points="125.989366 228.180852 120.354839 174.819339 149.06231 166.195536 161.898315 219.140127"></polyline>
                <polyline id="Path-112-Copy" fill="#CAB7C7" transform="translate(318.104663, 165.644882) scale(-1, 1) rotate(20.000000) translate(-318.104663, -165.644882) " points="297.809536 191.396609 290.720598 150.87675 334.482086 139.893154 345.488728 183.912742"></polyline>
                <polygon id="Path-112-Copy-3" fill="#A1B09F" transform="translate(262.441970, 155.551569) scale(-1, 1) rotate(20.000000) translate(-262.441970, -155.551569) " points="256.858833 196.023302 245.77379 120.070892 264.294228 115.079836 279.110149 192.048635"></polygon>
                <polygon id="Path-112-Copy-2" fill="#D8D2D2" transform="translate(349.572819, 148.316318) rotate(-5.000000) translate(-349.572819, -148.316318) " points="337.725176 179.459052 328.717354 117.173584 358.480722 117.173584 370.428284 176.877912"></polygon>
                <polyline id="Path-113-Copy" fill="#D1DBCF" points="56.0327602 234.753686 51.7525806 178.026662 76.2004314 173.633774 84.5227056 229.622371"></polyline>
                <polyline id="Path-113" fill="#B0ADAD" points="92.507645 232.089595 86.6554839 162.877325 120.082297 157.517592 131.461093 225.828912"></polyline>
                <polygon id="Path-117" fill="#B7ACB6" points="416.949668 160.132974 406.799355 103.252381 414.352374 85.8580225 430.453051 83.1352129 440.333065 94.4906648 454.987651 160.132974"></polygon>
                <polyline id="Path-114" fill="#B7C8B5" points="159.650758 212.902476 152.850645 176.059189 227.168733 158.757298 235.284665 206.067488"></polyline>
                <polyline id="Path-114" fill="#D4CEB6" points="393.960823 168.706042 387.542581 137.628294 452.602089 121.824134 451.80899 157.631046"></polyline>
                <polyline id="Path-114-Copy" fill="#D6D7EC" points="238.137284 202.192531 229.877742 143.225749 238.812956 126.524934 254.197105 139.077171 265.079984 197.073061"></polyline>
                <polygon id="Path-115" fill="#A99DAA" points="154.089602 218.174076 140.815161 146.360235 164.164587 146.360235 175.27084 218.263201"></polygon>
                <polyline id="Path-113-Copy" fill="#F1F1F1" points="278.864618 193.843378 273.174743 167.775402 305.529748 161.236711 316.533226 191.105889"></polyline>
                <path d="M12.1481157,220.791342 C13.2572692,220.102651 14.0024296,220.171423 14.383597,220.997658 C14.7647643,221.823894 16.6100796,227.562383 19.9195428,238.213126 L14.0268141,238.11181 L12.1481157,220.791342 Z" id="Path-116-Copy" fill="#8C8272" transform="translate(16.033829, 229.267423) scale(-1, 1) rotate(29.000000) translate(-16.033829, -229.267423) "></path>
                <path d="M28.7147228,214.586861 C29.8238763,213.734906 30.5690367,213.819982 30.9502041,214.842089 C31.3313714,215.864196 33.1766867,222.96308 36.4861499,236.138741 L30.5934212,236.013406 L28.7147228,214.586861 Z" id="Path-116-Copy-2" fill="#8C8272" transform="translate(32.600436, 225.072325) scale(-1, 1) rotate(20.000000) translate(-32.600436, -225.072325) "></path>
            </g>
            <path d="M44.0138974,337.99248 C46.5214165,335.738556 48.9782825,334.757867 51.3844955,335.050413 C53.7907086,335.342959 56.0580309,336.898012 58.1864624,339.715572 C60.4724071,339.71452 61.9552243,340.403663 62.634914,341.783001 C63.3146038,343.162338 63.0452469,344.935747 61.8268432,347.103227 C61.5206718,349.856286 60.8662661,351.719313 59.8636262,352.692307 C58.8609863,353.665301 56.7681368,354.468298 53.5850778,355.101298 C48.8793356,356.546699 45.6830581,357.166858 43.9962453,356.961776 C42.3094324,356.756695 40.2423594,355.49662 37.7950263,353.181554 C36.4321689,352.226176 35.8453643,350.64681 36.0346126,348.443456 C36.2238609,346.240103 37.1771496,344.863992 38.8944787,344.315124 C38.3079243,342.394216 38.7399156,340.820138 40.1904527,339.592891 C41.6409898,338.365645 42.9154713,337.832174 44.0138974,337.99248 Z" id="Path-111-Copy" fill="#A4DCAB"></path>
            <path d="M77.0138974,329.448393 C79.5214165,327.604273 81.9782825,326.801891 84.3844955,327.041247 C86.7907086,327.280603 89.0580309,328.552919 91.1864624,330.858195 C93.4724071,330.857335 94.9552243,331.421179 95.634914,332.549728 C96.3146038,333.678276 96.0452469,335.129247 94.8268432,336.90264 C94.5206718,339.155143 93.8662661,340.679438 92.8636262,341.475524 C91.8609863,342.27161 89.7681368,342.928607 86.5850778,343.446517 C81.8793356,344.629117 78.6830581,345.13652 76.9962453,344.968726 C75.3094324,344.800932 73.2423594,343.769962 70.7950263,341.875817 C69.4321689,341.094144 68.8453643,339.801935 69.0346126,337.999192 C69.2238609,336.196448 70.1771496,335.070539 71.8944787,334.621465 C71.3079243,333.049813 71.7399156,331.761931 73.1904527,330.75782 C74.6409898,329.753709 75.9154713,329.317234 77.0138974,329.448393 Z" id="Path-111-Copy-2" fill="#7BCB84"></path>
            <path d="M62.0138974,340.448393 C64.5214165,338.604273 66.9782825,337.801891 69.3844955,338.041247 C71.7907086,338.280603 74.0580309,339.552919 76.1864624,341.858195 C78.4724071,341.857335 79.9552243,342.421179 80.634914,343.549728 C81.3146038,344.678276 81.0452469,346.129247 79.8268432,347.90264 C79.5206718,350.155143 78.8662661,351.679438 77.8636262,352.475524 C76.8609863,353.27161 74.7681368,353.928607 71.5850778,354.446517 C66.8793356,355.629117 63.6830581,356.13652 61.9962453,355.968726 C60.3094324,355.800932 58.2423594,354.769962 55.7950263,352.875817 C54.4321689,352.094144 53.8453643,350.801935 54.0346126,348.999192 C54.2238609,347.196448 55.1771496,346.070539 56.8944787,345.621465 C56.3079243,344.049813 56.7399156,342.761931 58.1904527,341.75782 C59.6409898,340.753709 60.9154713,340.317234 62.0138974,340.448393 Z" id="Path-111" fill="#86E491"></path>
            <path d="M113.858064,175.936819 C113.322409,173.945523 113.585923,171.724966 114.648608,169.275149 C115.711292,166.825332 117.775821,165.107448 120.842195,164.121496 C125.13799,162.986169 128.485988,162.712838 130.886188,163.301504 C133.286389,163.890169 135.819103,165.224602 138.484332,167.304801 C140.956632,165.787086 143.822286,165.001765 147.081295,164.948838 C150.340304,164.895912 153.216111,165.681233 155.708716,167.304801 C158.513875,167.314069 160.727292,167.980423 162.348968,169.303864 C164.781482,171.289027 168.103691,172.635526 167.997518,176.54901 C167.926735,179.158 165.918843,181.35194 161.97384,183.130831 C159.714275,187.266027 157.355502,189.656273 154.89752,190.301569 C152.439539,190.946865 146.968476,190.612193 138.484332,189.297552 C132.476812,191.099184 125.870586,192 118.665654,192 C111.460722,192 105.98858,191.629901 102.249227,190.889702 C96.3821147,191.983494 90.8807936,191.879649 85.7452641,190.578166 C80.6097347,189.276683 77.1526973,186.794238 75.3741521,183.130831 C74.2031658,181.958792 73.7805731,180.367171 74.1063741,178.355968 C74.4321751,176.344765 76.5289193,175.136615 80.3966068,174.731519 C86.3186056,171.71695 92.4343445,170.284692 98.7438235,170.434744 C105.053303,170.584796 110.091383,172.418821 113.858064,175.936819 Z" id="Path-119" fill="#F9F7F7" transform="translate(121.000000, 177.500000) rotate(-13.000000) translate(-121.000000, -177.500000) "></path>
            <path d="M49.8620097,169.481323 C54.4160956,164.428995 60.2602642,161.296417 67.3945157,160.083589 C74.5287671,158.87076 81.3020901,159.655236 87.7144848,162.437015 C92.7282917,159.029924 97.1548208,158.155904 100.994072,159.814954 C104.833323,161.474005 106.871272,164.696128 107.107919,169.481323 C111.381568,169.88227 114.096894,171.385046 115.253899,173.989653 C116.410903,176.594259 116.222253,179.189924 114.687949,181.776647 C111.576789,185.819565 107.555108,188.057705 102.622907,188.491068 C97.6907052,188.924432 92.7212312,188.595914 87.7144848,187.505517 C77.4926652,193.752862 69.6621036,197.20254 64.2228001,197.854549 C58.7834966,198.506559 50.683283,196.966505 39.9221595,193.234386 C30.1123477,194.952245 24.0501492,195.336284 21.7355639,194.386504 C19.4209786,193.436724 16.1757907,189.233438 12,181.776647 C16.3713285,175.646032 22.2990086,171.708002 29.7830401,169.962557 C37.2670716,168.217112 43.9600615,168.056701 49.8620097,169.481323 Z" id="Path-118" fill="#FFFFFF" transform="translate(64.000000, 178.500000) rotate(-6.000000) translate(-64.000000, -178.500000) "></path>
            <path d="M17,376 L508,300.206964 C503.98454,151.029438 501.770392,73.4658516 501.357556,67.5162052 C500.94472,61.5665589 497.174397,56.3466851 490.046586,51.8565839 L496.135627,292.156997 L36.1828434,360.406029 C32.446476,269.318246 30.1712847,218.899961 29.3572696,209.151172 C32.5902042,209.151172 186.804448,186.767448 492,142 L492,138 C186.920625,181.303551 32.4682401,202.955326 28.6428454,202.955326 C24.4919073,174.456926 24.5705444,47.7312003 21.9653735,22.6830765 C17.9007904,-16.3969636 0.127677828,34.7282117 0.00987886585,36.2621521 C-0.272906399,39.9444912 5.39046731,153.190441 17,376 Z" id="Path-108-Copy" fill="#979797"></path>
        </g>
        <polygon id="Rectangle-20" fill="#2F4259" transform="translate(417.230755, 609.207393) rotate(-13.000000) translate(-417.230755, -609.207393) " points="-6.94753764 477.331195 856.042539 519.151708 810.65814 741.08359 -21.5810279 552.452598"></polygon>
        <g id="Table-Leg-Copy-3" transform="translate(658.800000, 373.760000)">
            <polygon id="Path-88-Copy" fill="#522303" points="0.205393703 158.533732 9.49618105 161.51503 9.86862664 5.5780691 0.90242045 3.85777536"></polygon>
            <polygon id="Path-88-Copy-2" fill="#311808" points="9.27334369 161.306267 16.0401542 157.829147 15.9416904 0.256711956 9.01054198 2.29055599"></polygon>
        </g>
        <polygon id="Path-90" fill="#774D31" points="77.1479763 414.014204 546.484756 333.494112 714.357998 364.466875 242.466089 450.553964"></polygon>
        <g id="RIght-Leg" transform="translate(430.020000, 511.700000)">
            <path d="M43.717097,7.67068005 L32.4591025,58.5201823 L50.6016414,61.940805 L69.2443439,0.506942889 C65.0716936,0.75365518 60.7645736,1.61288442 56.322984,3.0846306 C51.8813945,4.55637679 47.6794321,6.08505994 43.717097,7.67068005 Z" id="Path-95-Copy" fill="#FFBF89"></path>
            <path d="M59.357495,46.6094622 C59.3715669,51.0169062 58.0805962,55.6998868 55.4845827,60.6584042 C51.5905625,68.0961802 48.9951697,68.0382292 48.7343981,70.0680755 C46.6507893,69.3468285 42.8110785,68.4590642 40.5878099,67.9633757 C39.9472972,67.8205703 41.4627889,63.6211919 40.2205099,62.9082983 C38.9782309,62.1954048 35.9799231,66.6401741 35.2489612,66.3643991 C13.184748,58.0400832 5.29751246,51.3857753 3.67344401,48.5167085 C-0.0877493648,30.1538531 20.0275725,34.2546774 39.5389646,40.9859938 C39.9377765,42.3924584 42.1427476,43.3585839 44.4057722,43.8931141 C45.9144552,44.2494675 50.8983628,45.1549168 59.357495,46.6094622 Z" id="Path-96" fill="#45061F" transform="translate(31.286968, 52.682168) rotate(-13.000000) translate(-31.286968, -52.682168) "></path>
        </g>
        <g id="Left-Leg" transform="translate(383.280000, 519.720000)">
            <path d="M43.5476746,0.106622433 L32.505481,58.6298723 L50.143143,60.7179 L66.9642162,2.41436703 C59.8518893,2.21933096 55.0294163,1.90905261 52.4967971,1.48353197 C49.964178,1.05801134 46.9811371,0.59904149 43.5476746,0.106622433 Z" id="Path-95" fill="#FFBF89"></path>
            <path d="M56.1213369,41.7734572 C58.5529229,46.8285718 59.0054447,52.0364638 57.4789022,57.3971331 C55.1890885,65.4381371 53.1661433,66.7288076 52.6221208,69.0596679 C50.0250491,68.5022674 45.9640029,68.4189052 43.6137721,67.5281817 C43.255675,67.3924651 41.4731248,63.6636177 39.8572872,62.9515428 C38.2414496,62.2394679 34.1344085,65.1590845 33.1551356,65.4215362 C30.454503,66.1453238 2.11945436,64.1242675 0.53786668,61.3302469 C-0.445521795,38.1947391 27.217025,45.3077696 36.5560933,36.8778785 C37.4790092,40.1977896 38.7753395,40.8698837 41.038364,41.4044138 C42.5470471,41.7607672 47.5747047,41.8837817 56.1213369,41.7734572 Z" id="Path-96" fill="#45061F"></path>
        </g>
        <path d="M415.510219,516.907952 C412.05982,516.139474 413.314695,495.137799 419.42684,463.563128 C425.538984,431.988456 434.694151,424.883441 437.054511,423.509885 C439.414872,422.136329 468.495181,412.889017 476.815778,411.674595 C482.362843,410.86498 498.101811,412.581674 524.03268,416.824677 L584.676933,458.106156 C544.05655,490.188333 520.831324,506.969685 515.001257,508.450211 C503.105563,511.471084 492.271399,511.603874 488.18054,513.224962 C477.533168,517.444205 462.905777,521.154457 457.504373,521.967891 C435.593472,523.395114 416.649912,517.161787 415.510219,516.907952 Z" id="Path-94" fill="#DC4077"></path>
        <g id="Laptop" transform="translate(328.340000, 290.120000)">
            <polygon id="Path-98" fill="#FEFEFE" points="25.42 86.1553118 102.65605 58.8479683 159.653719 67.7726126 88.1165273 94.1327265"></polygon>
            <polygon id="Path-100" fill="#C4C4C4" points="25.5972793 88.5020898 88.9051255 96.6263689 88.8623479 93.9052145 25.5063891 86.1141855"></polygon>
            <polygon id="Path-101" fill="#F0F0F0" points="25.5493273 86.1336671 0.625623424 21.908175 76.0191033 0.554547814 102.778787 58.8601705"></polygon>
            <polygon id="Path-101-Copy-2" fill="#000000" points="26.1792925 85.6165814 1.95787345 22.6963777 75.9153216 1.56058186 101.961724 58.8079999"></polygon>
            <polygon id="Path-101-Copy" fill="#3D3D3D" points="27.4323767 83.6603693 4.03415649 24.1220791 75.2790099 3.22433256 99.9087872 58.1964113"></polygon>
            <polygon id="Path-99" fill="#B3B0B0" points="88.8491708 93.9082101 88.8938887 96.6087653 159.778514 70.4926959 159.636095 67.7819119"></polygon>
            <polygon id="Path-103" fill="#D8D8D8" points="98.5670618 81.351838 117.452749 73.2892968 129.782002 76.3686845 107.341743 87.5298964"></polygon>
            <polygon id="Path-102" fill="#D5D5D5" points="40.7139855 84.4488276 104.611066 61.3040138 132.079021 65.6127124 78.760313 89.1524045"></polygon>
            <text id="public-static-void-m" transform="translate(52.428409, 41.317900) rotate(-18.500000) translate(-52.428409, -41.317900) " font-family="TimesNewRomanPSMT, Times New Roman" font-size="2.46" font-weight="normal" fill="#03FF00">
                <tspan x="15.1184094" y="17.3179002">public static void main(String[] args)</tspan>
                <tspan x="15.1184094" y="20.3179002">     {	</tspan>
                <tspan x="15.1184094" y="23.3179002">          int[] list ={1, 2, 3, 4, 5, 6, 7, 8, 9, 10, 11, 12, 13, 14};</tspan>
                <tspan x="15.1184094" y="26.3179002">          int sum = sumListEnhanced(list);</tspan>
                <tspan x="15.1184094" y="29.3179002">          System.out.println("Sum of elements in list: " + sumthing cool”);</tspan>
                <tspan x="15.1184094" y="32.3179002"></tspan>
                <tspan x="15.1184094" y="35.3179002">          System.out.println("Original List"); </tspan>
                <tspan x="15.1184094" y="38.3179002">          printList(list);</tspan>
                <tspan x="15.1184094" y="41.3179002">          System.out.println("Calling addOne to add one plus one plus two”);</tspan>
                <tspan x="15.1184094" y="44.3179002">          addOne(list);</tspan>
                <tspan x="15.1184094" y="47.3179002">          System.out.println("List after call to addOne and done!”);</tspan>
                <tspan x="15.1184094" y="50.3179002">          printList(list);</tspan>
                <tspan x="15.1184094" y="53.3179002">          System.out.println("Calling addOneError List”);</tspan>
                <tspan x="15.1184094" y="56.3179002">          addOneError(list);</tspan>
                <tspan x="15.1184094" y="59.3179002">          printList(list);</tspan>
                <tspan x="15.1184094" y="62.3179002">          System. out.println(“Kim!”);</tspan>
                <tspan x="49.7590051" y="62.3179002" font-family="Helvetica" font-size="9.84"></tspan>
                <tspan x="15.1184094" y="65.3179002" font-family="Helvetica">     }</tspan>
            </text>
        </g>
        <polygon id="Path-93" fill="#48250D" points="242.24 470.466015 242.268624 449.780028 714.429432 364.443715 714.429432 376.239518"></polygon>
        <g id="Mouse" transform="translate(470.200000, 336.860000)">
            <path d="M1.887293,9.3954858 C0.935581619,15.3031081 6.9077682,16.9799667 12.2854708,16.9799667 C17.6631733,16.9799667 25.4047411,18.0886509 27.5569045,10.6490736 C29.0019667,4.47051519 15.844333,4.53219016 12.4355485,4.53219016 C9.0267639,4.53219016 3.45288081,4.75422917 1.887293,9.3954858 Z" id="Path-104" fill="#D8D8D8" transform="translate(14.726949, 10.785299) rotate(19.000000) translate(-14.726949, -10.785299) "></path>
            <path d="M6.95147988,14.4080781 C6.91573876,10.8180806 7.45991699,8.46485189 8.58401457,7.34839185 C9.70811214,6.23193182 8.05509951,5.34449537 3.62497668,4.68608251" id="Path-105" stroke="#979797" stroke-width="0.5"></path>
        </g>
        <g id="Right-Hand" transform="translate(473.480000, 325.380000)">
            <path d="M31.5629074,19.9817452 C24.9723785,16.0639807 19.5427607,15.2621385 13.3107583,15.5063307 C9.61289991,15.651226 11.3978572,16.6117092 7.89598704,17.4112334 C3.88082744,18.3279484 6.2943517,19.0536681 4.91714368,19.5510743 C3.53993566,20.0484805 2.63562496,19.9533676 2.436217,20.8773462 C2.23680905,21.8013248 3.27792284,23.2245928 2.95514125,23.8203118 C1.09749919,27.2487375 9.61245767,25.8556981 13.6871679,26.5979556 C17.7618781,27.3402131 18.0346833,28.2971421 20.1265358,29.6501977 C10.4515158,33.8576336 19.6818276,34.5373979 22.7791784,32.2193713 C24.4549875,31.4007827 25.3115989,30.3603313 28.3344628,29.6501977 C34.0705411,28.3026738 42.2405514,27.2852597 52.8444936,26.5979556 L74.0966309,6.35313632 C47.0999728,16.2468318 32.9220649,20.7897014 31.5629074,19.9817452 Z" id="Path-89-Copy" fill="#FFBF89" transform="translate(38.253624, 19.943829) rotate(10.000000) translate(-38.253624, -19.943829) "></path>
            <path d="M14.2848834,28.1270329 C13.6968288,26.5216645 12.927262,25.4101648 11.9761831,24.7925338 C11.2501513,24.3210485 7.14619674,22.990436 4.40053441,21.9164949 C3.54946511,21.5836068 2.99410175,20.8260379 3.81665852,21.0683518 C8.47438295,21.5897098 11.8549973,21.5147478 14.0769975,22.4272481 C16.2989978,23.3397483 17.0006682,23.7414063 18.7260761,25.3038196 C17.5510038,25.7610658 16.651767,26.3387223 16.2613275,26.5783439 C15.8708881,26.8179655 15.2120734,27.3341952 14.2848834,28.1270329 Z" id="Path-91-Copy" fill-opacity="0.4" fill="#4A4A4A" transform="translate(11.069485, 24.574204) rotate(7.000000) translate(-11.069485, -24.574204) "></path>
        </g>
        <path d="M529.497289,321.503563 L557.51302,296.68 L610.013739,315.28683 L610.013739,333.219099 L574.228821,481.818869 C577.556212,463.804726 575.643324,456.202118 568.490158,459.011045 C559.939872,462.368597 520.893942,453.872641 517.464856,437.833947 C515.377373,428.070265 519.948438,419.915478 523.590319,416.86839 C534.462034,415.032449 534.821477,401.891817 538.07011,383.248446 C540.689545,374.8118 522.086092,367.507072 526.467488,350.920418 C526.955408,349.073302 527.965341,341.435775 529.497289,328.007838 L529.497289,321.503563 Z" id="Path-85" fill="#F0ED42"></path>
        <g id="head" transform="translate(499.720000, 187.620000)">
            <ellipse id="Oval" fill="#000000" transform="translate(18.450000, 59.450000) rotate(12.000000) translate(-18.450000, -59.450000) " cx="18.45" cy="59.45" rx="5.33" ry="6.97"></ellipse>
            <path d="M57.4410461,108.017744 C80.9904678,108.017744 89.38,87.4851282 89.38,56.6506897 C89.38,25.8162512 70.2894217,0.82 46.74,0.82 C23.1905783,0.82 4.1,25.8162512 4.1,56.6506897 C4.1,59.0400614 -0.1846266,66.5331534 0.0378336139,68.8434969 C0.333674344,71.915928 4.16125757,72.3616576 4.92,75.1436714 C7.60687493,84.9953981 10.1446525,98.3720209 16.3031476,105.200494 C23.9737915,113.705621 46.737102,108.017744 57.4410461,108.017744 Z" id="Oval-14" fill="#FFBF89"></path>
            <path d="M19.2914109,39.147881 L17.7270334,41.7358664 C16.0162497,39.7886009 14.4941308,38.8401108 13.1606768,38.8903961 C11.8272228,38.9406814 10.3956278,39.6627245 8.86589196,41.0565254 L8.7285642,38.1121361 C10.2452858,36.8650317 11.8275871,36.1717123 13.4754682,36.0321779 C15.1233493,35.8926436 17.0619969,36.9312113 19.2914109,39.147881 Z" id="Path-53-Copy" fill="#3C230D" transform="translate(14.009988, 38.877825) rotate(-330.000000) translate(-14.009988, -38.877825) "></path>
            <path d="M4.62089713,47.5974396 C5.67362297,46.5688947 7.80109678,45.9901086 9.45671331,45.9901086 C10.5604577,45.9901086 12.3218379,46.6881398 14.7408541,48.0842022 C15.7671602,48.5675071 16.2803132,48.9252393 16.2803132,49.1573988 C16.2803132,49.3488733 17.2646267,52.3334091 16.566513,55.393565 C16.4676219,55.8270507 15.8590689,56.0891311 14.7408541,56.1798061 C14.5332584,56.3998003 14.4131331,56.6424921 14.380478,56.9078816 C14.3589186,57.0830964 14.2212614,59.9228837 13.8925258,63.2340472 C13.7797362,64.3701115 13.5573747,66.1239793 13.2254414,68.4956504 C12.7504186,69.8147157 11.8161038,70.5386722 10.4224971,70.66752 C8.33208698,70.8607917 7.45206173,70.3551933 6.95954448,69.504883 C6.46702723,68.6545727 5.3381616,67.8087542 4.72172642,62.0788154 C4.31076964,58.2588563 3.96722631,55.4036088 3.69109643,53.5130731 L3.49138314,50.3398167 C3.54257524,49.1972619 3.9190799,48.2831362 4.62089713,47.5974396 Z M12.3489872,52.4223579 C12.088268,50.6318893 11.615625,49.2701086 9.1264401,49.2701086 C6.63725519,49.2701086 6.187785,50.3580264 5.78302704,52.4223579 C5.37826907,54.4866893 5.65156358,58.9662669 5.94829895,61.7630811 C6.24503432,64.5598954 6.45257454,66.1051042 7.33240312,68.011909 C8.21223169,69.9187137 8.23566634,69.7672628 9.64154948,69.7672628 C10.5788049,69.7672628 11.2575189,69.235484 11.6776913,68.1719263 C12.1256303,66.6400015 12.4043161,64.2741822 12.5137487,61.0744684 C12.6778977,56.2748977 12.6097065,54.2128264 12.3489872,52.4223579 Z" id="Combined-Shape" fill="url(#linearGradient-2)" transform="translate(10.154054, 58.349352) rotate(9.000000) translate(-10.154054, -58.349352) "></path>
            <ellipse id="Oval-2" fill="#000000" transform="translate(7.596238, 62.461937) rotate(-6.000000) translate(-7.596238, -62.461937) " cx="7.59623797" cy="62.4619366" rx="1.23" ry="4.1"></ellipse>
            <path d="M6.39280281,82.3272369 C10.5637989,84.4499848 15.5462339,84.2759944 21.3401079,81.8052655 C19.5698375,87.678427 15.5213845,90.7254732 9.19474875,90.9464042 C8.54610061,90.9690555 8.55354095,88.6433946 6.39280281,82.3272369 Z" id="Path-50" fill="#FFFFFF" transform="translate(13.866455, 86.375917) rotate(2.000000) translate(-13.866455, -86.375917) "></path>
            <path d="M105.854017,142.522642 C105.08841,144.887446 103.166624,148.605004 100.206829,149.990493 C96.602322,151.677774 93.3998239,151.922668 90.6293476,159.223269 C88.7545914,164.16352 81.2194213,154.190739 78.2171564,159.223269 C66.5675728,178.750819 68.9441074,132.102709 59.5912175,127.698653 C50.2383277,123.294597 41.61107,132.782945 38.1876301,136.104521 C13.3619447,160.877024 29.0491778,134.809643 38.1876301,106.300112 C44.2799317,87.2937576 45.1615304,71.2980259 40.8324263,58.3129166 C34.384605,54.0708425 28.7563799,49.9240075 23.9477509,45.8724116 C19.1391219,41.8208157 15.5298716,33.5143991 13.12,20.9531618 C14.1340421,17.5292295 15.9125534,14.792881 18.455534,12.7441164 C21.5227711,9.07343038 25.0457618,6.33751654 29.0245063,4.53637485 C50.2079676,-3.16760568 86.797133,-0.952723867 99.3861847,23.6945256 C106.18084,41.8290839 111.091892,78.3209225 107.517489,108.278437 C106.232401,119.048916 113.044887,137.464872 110.521565,139.376845 C109.327838,140.281357 107.771988,141.329955 105.854017,142.522642 Z" id="Combined-Shape" fill="url(#linearGradient-3)"></path>
            <polygon id="Path-84" fill-opacity="0.830615942" fill="#353535" points="17.0864059 51.509759 42.9343879 58.2842664 43.5397031 62.483863 16.4 56.54567"></polygon>
        </g>
        <g id="Chair" transform="translate(447.240000, 297.500000)">
            <path d="M56.58,282.75931 C60.202988,282.75931 63.14,279.822298 63.14,276.19931 C63.14,272.576322 50.02,272.576322 50.02,276.19931 C50.02,279.822298 52.957012,282.75931 56.58,282.75931 Z" id="Oval-13" fill="#A8A8A8"></path>
            <path d="M57.81,303.024703 C61.2065512,303.024703 63.96,300.271254 63.96,296.874703 C63.96,295.515456 62.7431405,292.914969 60.3800908,292.643621 C56.8382352,292.23691 51.66,294.837397 51.66,296.874703 C51.66,300.271254 54.4134488,303.024703 57.81,303.024703 Z" id="Oval-13-Copy" fill="#A8A8A8"></path>
            <circle id="Oval-13-Copy-2" fill="#A8A8A8" cx="166.05" cy="298.07" r="6.15"></circle>
            <path d="M164.41,276.616985 C167.806551,276.616985 170.56,273.863536 170.56,270.466985 C170.56,269.211617 168.157083,267.464582 166.038642,267.137183 C162.425381,266.578765 158.26,268.325801 158.26,270.466985 C158.26,273.863536 161.013449,276.616985 164.41,276.616985 Z" id="Oval-13-Copy-3" fill="#A8A8A8"></path>
            <path d="M178.098521,31.4488039 C184.396309,19.3901973 192.458713,11.6480413 202.285734,8.2223362 C216.250962,4.21671068 218.849146,6.46760714 223.335036,7.55438494 C215.914337,54.4066949 202.674625,108.072564 183.615901,168.551991 L132.984987,212.844483 L178.098521,31.4488039 Z" id="Path-70" fill="#0E6685"></path>
            <path d="M153.007989,25.5885858 C162.535461,15.2203767 171.432439,8.21665928 179.698924,4.57743354 C187.96541,0.938207799 195.352786,-0.0574653968 201.861051,1.59041395 C211.384874,4.48167605 218.544827,6.55510393 223.340911,7.8106976 C217.1174,7.00552427 211.915475,1.51742051 201.861051,7.8106976 C195.932921,11.5212403 188.715436,18.4413389 178.818462,30.3869296 C174.474977,46.7447806 156.160668,123.979665 133.516707,212.775973 C129.824484,212.775973 120.967423,212.775973 106.945525,212.775973 C49.8552927,199.466291 17.8935154,191.446471 11.0601929,188.716512 C8.17467977,187.56373 -7.58213876,186.662076 4.49862255,158.292058 C6.32145102,154.011395 8.25657547,147.913887 36.1203891,149.405935 C55.9256108,150.466462 82.514935,159.475922 115.888362,176.434316 C113.744135,168.151532 113.744135,159.672335 115.888362,150.996725 C119.104702,137.983311 125.85459,132.019535 127.653064,127.367148 C129.824222,121.750683 126.178885,112.076319 129.824222,100.035976 C132.560448,90.9983775 136.415886,83.4229385 141.390536,77.3096587 C141.069129,65.2386034 141.771142,55.3622456 143.496577,47.6805854 C145.222011,39.9989252 148.392482,32.6349253 153.007989,25.5885858 Z" id="Path-70-Copy" fill="#117BA1"></path>
            <polygon id="Path-79" fill="#9A9A9A" points="107.046285 212.811633 104.14 261.046345 121.860328 261.046345 119.629753 212.811633"></polygon>
            <path d="M122.18,252.56 C155.517518,261.996219 172.558525,267.500823 173.303021,269.073811 C174.047516,270.6468 163.811068,272.126064 142.593675,273.511604 L122.18,252.56 Z" id="Path-82" fill="#6A6868"></path>
            <path d="M104.368761,247.486515 C67.1301521,279.09359 49.0138984,295.763242 50.02,297.495469 C51.0261016,299.227696 71.6550606,292.749171 111.906877,278.059895 C152.633079,294.096907 173.72133,301.292963 175.171629,299.648064 C176.621929,298.003165 158.749771,280.615982 121.555156,247.486515 L104.368761,247.486515 Z" id="Path-81" fill="#7E7D7D"></path>
            <path d="M93.2430866,257.256766 C65.3025546,266.088636 50.0748591,271.581367 47.56,273.73496 C45.0451409,275.888553 52.888028,276.820996 71.0886613,276.53229 L93.2430866,257.256766 Z" id="Path-80" fill="#6A6868"></path>
            <path d="M50.7549833,297.603776 C50.7549833,295.930232 71.3632549,284.87041 112.579798,264.424307 C154.563379,286.344816 175.233639,298.10008 174.590576,299.6901 C173.947514,301.280119 153.088961,294.034205 112.014916,277.952357 C71.1749609,292.726846 50.7549833,299.277319 50.7549833,297.603776 Z" id="Path-87" fill="#666666"></path>
            <path d="M121.361347,212.847414 C120.829909,214.154216 120.098869,216.248304 119.16823,219.129677 C118.23759,222.01105 114.193176,231.515711 107.034989,247.643661 L108.799919,212.783711 L121.361347,212.847414 Z" id="Path-86" fill-opacity="0.2" fill="#000000" transform="translate(114.198168, 230.213686) scale(-1, 1) translate(-114.198168, -230.213686) "></path>
            <path d="M178.849747,30.8351693 C173.533798,25.7839098 173.263597,25.7689854 165.999709,24.6047227 C161.157117,23.8285475 156.775134,24.2166351 152.853761,25.7689854 C160.747837,16.3589787 169.175647,9.45612028 178.137192,5.06041003 C187.098736,0.664699788 195.056434,-0.529773476 202.010284,1.47699024 C213.282547,4.34779108 220.452662,6.41689361 223.520629,7.68429782 C219.38859,6.78146513 214.66326,3.89290338 203.055233,8.59273388 C190.896405,15.1222872 184.712798,24.111276 178.849747,30.8351693 Z" id="Path-4" fill="#1491BE"></path>
            <path d="M55.5190116,152.347372 C65.9127606,153.354861 74.2452411,154.813279 80.5164533,156.722628 C86.7876654,158.631978 96.8692552,162.779954 110.761223,169.166557 L114.340623,160.269255 C114.391017,164.076065 114.459294,166.932348 114.545452,168.838106 C114.63161,170.743863 115.076635,173.256093 115.880526,176.374796 C101.427557,169.333966 90.3776561,164.291606 82.7308217,161.247718 C75.0839872,158.203829 66.0133839,155.237047 55.5190116,152.347372 Z" id="Path-106" fill-opacity="0.2" fill="#000000"></path>
        </g>
        <path d="M529.955598,331.94 C495.864067,357.791828 478.261431,370.717742 477.147692,370.717742 C474.477643,370.717742 460.835001,371.763938 436.219765,373.85633 C432.878211,370.433555 430.624997,368.715526 429.460121,368.702242 C426.582917,368.669432 428.441181,370.572457 427.387087,369.835258 C423.879144,367.381919 418.969025,364.60134 417.302161,365.4556 C416.304747,365.96677 414.179262,365.259094 412.427965,366.388905 C411.328367,367.258113 410.82631,368.439998 409.514189,370.170242 C407.996035,372.162937 407.495076,374.760309 408.182525,376.95059 C409.593901,376.643776 408.755612,375.510612 410.87952,375.101579 C413.119352,374.242958 419.280582,384.853461 431.150887,383.914138 C434.761204,385.927193 479.960603,391.994812 485.282159,390.833631 C487.378917,390.362255 509.138197,381.604152 550.56,364.559321 C541.668845,358.66098 535.982721,354.143778 533.501628,351.007713 C531.020535,347.871648 529.838525,341.515744 529.955598,331.94 Z" id="Path-89" fill="#FFBF89"></path>
        <g id="Table-Leg" transform="translate(110.220000, 428.700000)">
            <polygon id="Path-88-Copy" fill="#522303" points="0 149.635848 9.46074136 152.52 9.84 1.66423805 0.70977728 0"></polygon>
            <polygon id="Path-88-Copy-2" fill="#311808" points="9.37375201 152.616879 15.3206014 150.195187 16.2966283 6.56 9.02 8.39292728"></polygon>
        </g>
        <g id="Table-Leg-Copy" transform="translate(211.900000, 450.020000)">
            <polygon id="Path-88-Copy" fill="#522303" points="0.205393703 158.533732 9.49618105 161.51503 9.86862664 5.5780691 0.90242045 3.85777536"></polygon>
            <polygon id="Path-88-Copy-2" fill="#311808" points="9.27334369 161.306267 16.0401542 157.829147 15.9416904 0.256711956 9.01054198 2.29055599"></polygon>
        </g>
        <path d="M424.28,382.645297 C417.724498,380.838017 412.949036,375.141485 411.136921,374.581121 C408.731742,374.529129 408.979232,376.302809 407.88,376.434369 C408.54477,377.183515 408.434841,376.373816 410.067319,376.9792 C413.099177,378.103527 421.730043,383.714337 424.28,382.645297 Z" id="Path-91" fill-opacity="0.4" fill="#000000" opacity="0.400000006"></path>
        <polygon id="Path-92" fill="#5F2F0F" points="77.42 413.94 77.6931665 433.654115 242.24 470.52 242.24 450.011545"></polygon>
        <path d="M516.893546,415.322154 L502.182294,413.12 L430.645356,429.936559 C425.016654,441.96453 422.356179,448.044623 422.663931,448.176837 C422.971684,448.309052 429.097093,444.275821 441.040159,436.077147 L516.893546,415.322154 Z" id="Path-107" fill-opacity="0.2" fill="#4A4A4A"></path>
        <g id="Papers" transform="translate(314.400000, 386.880000)">
            <polygon id="Path-120" fill="#C9C7C7" points="0.82 13.516014 26.4606798 0.82 70.0756854 10.6429777 44.8190619 24.0480186"></polygon>
            <polygon id="Path-120-Copy" fill="#E3E3E3" points="9.02 12.696014 34.6606798 0 78.2756854 9.82297767 53.0190619 23.2280186"></polygon>
            <polygon id="Path-120-Copy-2" fill="#F6F6F6" points="0 15.156014 25.6406798 2.46 69.2556854 12.2829777 43.9990619 25.6880186"></polygon>
        </g>
        <g id="Pencil" transform="translate(375.328381, 395.490000) rotate(43.000000) translate(-375.328381, -395.490000) translate(365.078381, 386.880000)">
            <path d="M2.15463861,14.1056314 L17.7698918,1.24616461 C18.3035852,0.806657671 19.0760927,0.8148305 19.600368,1.26553034 L19.600368,1.26553034 C20.012772,1.62005857 20.0596895,2.24177996 19.7051613,2.65418393 C19.6637606,2.70234322 19.617798,2.74638443 19.5679157,2.78569218 L2.9907068,15.8487129 L0.116816831,16.6274705 L2.15463861,14.1056314 Z" id="Path-35" fill="#FF8749"></path>
            <path d="M1.13177695,16.2261384 L1.13177695,16.2261384 C1.00149967,16.0683706 0.983205142,15.8461794 1.08592267,15.6692275 L1.9501625,14.1803984 C2.01768909,14.0640701 2.13761723,13.9878955 2.27161656,13.976221 L2.27161656,13.976221 C2.34841027,13.9695304 2.41608765,14.0263602 2.42277823,14.1031539 C2.42446944,14.1225655 2.4220775,14.142116 2.41575637,14.1605473 L2.37936481,14.2666585 C2.34831868,14.3571834 2.39653574,14.4557362 2.48706063,14.4867823 C2.51984107,14.4980246 2.5552394,14.4991797 2.58868304,14.4900984 L2.74368445,14.4480094 C2.8737545,14.4126903 3.00782893,14.4895011 3.04314807,14.6195711 C3.05612453,14.6673597 3.05425607,14.7179651 3.03779083,14.7646665 L2.99944136,14.8734397 C2.95528926,14.9986713 3.02101715,15.1359839 3.14624872,15.180136 C3.17398612,15.1899152 3.20328237,15.1945223 3.23268247,15.1937285 L3.23268247,15.1937285 C3.31725483,15.191445 3.38766538,15.2581534 3.38994884,15.3427257 C3.39098744,15.3811926 3.37751067,15.4186413 3.35219842,15.4476252 L3.23243395,15.5847621 C3.15235631,15.6764554 3.05286711,15.7491683 2.94118799,15.797623 L1.66082936,16.3531376 C1.47587776,16.4333833 1.2601476,16.3815973 1.13177695,16.2261384 Z" id="Path-36" fill="#F0D3A1" transform="translate(2.204914, 15.183120) rotate(9.000000) translate(-2.204914, -15.183120) "></path>
            <polygon id="Triangle" fill="#5C5C5C" transform="translate(0.785571, 16.069943) rotate(-4.000000) translate(-0.785571, -16.069943) " points="0.0938394875 16.5674663 1.0043847 15.5724204 1.47730204 16.308801"></polygon>
            <path d="M17.4516921,1.85603194 C17.6395284,2.11927138 18.0679691,2.61462295 18.7370141,3.34208666 L20.4160907,1.72062116 C19.8951719,1.02990374 19.500882,0.545959491 19.233221,0.268788427 C18.2806483,-0.130832369 17.0389209,1.05713179 17.4516921,1.85603194 Z" id="Path-44" fill="#FC8DC4" transform="translate(18.893143, 1.765469) rotate(91.000000) translate(-18.893143, -1.765469) "></path>
        </g>
        <g id="MOnitor" transform="translate(246.232231, 352.079152) rotate(1.000000) translate(-246.232231, -352.079152) translate(182.272231, 290.169152)">
            <path d="M58.3198773,123.231931 L55.3375511,121.841537 C55.9577553,115.867495 57.7778764,111.178671 60.7979143,107.775067 C63.8179522,104.371462 68.3219142,102.202 74.3098005,101.266683 L58.3198773,123.231931 Z" id="Path-189" fill="#1B1B1B"></path>
            <path d="M58.3306834,123.627932 C66.8626887,115.209453 75.1979408,110.036278 83.3364395,108.108408 C91.4749383,106.180538 99.817382,105.686275 108.363771,106.62562 C101.637437,99.2649125 92.433341,96.9635427 80.7514838,99.7215112 C79.5893243,99.9958853 78.8693008,90.7597575 73.8796784,92.9152998 C68.8900559,95.0708421 74.286998,101.849341 73.2895931,102.291591 C62.9235965,106.887883 57.9372933,113.999996 58.3306834,123.627932 Z" id="Path-188" fill="#424242"></path>
            <polygon id="Path-190" fill="#232323" points="1.63487806 29.0962003 0.613170716 32.2627413 26.7546399 114.148395 126.306667 80.9579252 127.195912 79.8233297 27.5719788 111.949989"></polygon>
            <polygon id="Path-101-Copy-3" fill="#424242" points="27.6475582 112.154584 1.55759662 29.1059259 102.19595 0.77706708 127.237603 79.8491196"></polygon>
            <polygon id="Path-101" fill="#5E5E5E" points="31.5257739 104.873884 8.22787261 32.8549526 99.6165483 6.51706708 122.451926 76.1244856"></polygon>
            <text id="public-static-void-m" transform="translate(67.774043, 55.668860) rotate(-17.500000) translate(-67.774043, -55.668860) " font-family="TimesNewRomanPSMT, Times New Roman" font-size="2.46" font-weight="normal" fill="#03FF00">
                <tspan x="20.8319538" y="22.5912547">public static void main(String[] args)</tspan>
                <tspan x="20.8319538" y="25.5912547">     {	</tspan>
                <tspan x="20.8319538" y="28.5912547">          int[] list ={1, 2, 3, 4, 5, 6, 7, 8, 9, 10, 11, 12, 13, 14};</tspan>
                <tspan x="20.8319538" y="31.5912547">          int sum = sumListEnhanced(list);</tspan>
                <tspan x="20.8319538" y="34.5912547">          System.out.println("Sum of elements in list: " + sumthing cool”);</tspan>
                <tspan x="20.8319538" y="37.5912547"></tspan>
                <tspan x="20.8319538" y="40.5912547">          System.out.println("Original List"); </tspan>
                <tspan x="20.8319538" y="43.5912547">          printList(list);</tspan>
                <tspan x="20.8319538" y="46.5912547">          System.out.println("Calling addOne to add one plus one plus two”);</tspan>
                <tspan x="20.8319538" y="49.5912547">          addOne(list);</tspan>
                <tspan x="20.8319538" y="52.5912547">          System.out.println("List after call to addOne and done!”);</tspan>
                <tspan x="20.8319538" y="55.5912547">          printList(list);</tspan>
                <tspan x="20.8319538" y="58.5912547">          System.out.println("Calling addOneError List”);</tspan>
                <tspan x="20.8319538" y="61.5912547">          addOneError(list);</tspan>
                <tspan x="20.8319538" y="64.5912547">          printList(list);</tspan>
                <tspan x="20.8319538" y="67.5912547">          System.out.println("List after call to addOne and done!”);</tspan>
                <tspan x="20.8319538" y="70.5912547">          printList(list);</tspan>
                <tspan x="20.8319538" y="73.5912547">          System.out.println("Calling addOneError List”);</tspan>
                <tspan x="20.8319538" y="76.5912547">          addOneError(list);</tspan>
                <tspan x="20.8319538" y="79.5912547">          printList(list);</tspan>
                <tspan x="20.8319538" y="82.5912547">          System. out.println(“Kim!”);</tspan>
                <tspan x="55.4725495" y="82.5912547" font-family="Helvetica" font-size="9.84"></tspan>
                <tspan x="20.8319538" y="85.5912547" font-family="Helvetica">     }</tspan>
            </text>
        </g>
        <g id="STicky-Copy" transform="translate(238.140000, 422.960000)">
            <polygon id="Path-191" fill="#FAB1E9" points="0.0398196864 10.2782843 19.5101324 13.1234522 32.0751813 3.23089247 12.6734889 0.300250619"></polygon>
            <polygon id="Path-192" fill="#C88ABA" points="0.0285923807 10.2877745 0.0285923807 13.8218501 19.5198313 16.5987103 32.0823402 6.5257239 32.0823402 3.22346988 19.5198313 13.1269259"></polygon>
        </g>
        <g id="STicky-Copy-2" transform="translate(259.460000, 404.920000)">
            <polygon id="Path-191" fill="#F9FAB1" points="0.0398196864 10.2782843 19.5101324 13.1234522 32.0751813 3.23089247 12.6734889 0.300250619"></polygon>
            <polygon id="Path-192" fill="#C6C78B" points="0.0285923807 10.2877745 0.0285923807 13.8218501 19.5198313 16.5987103 32.0823402 6.5257239 32.0823402 3.22346988 19.5198313 13.1269259"></polygon>
        </g>
        <g id="STicky-Copy-3" transform="translate(295.540000, 411.480000)">
            <polygon id="Path-191" fill="#FFBC54" points="0.0398196864 10.2782843 19.5101324 13.1234522 32.0751813 3.23089247 12.6734889 0.300250619"></polygon>
            <polygon id="Path-192" fill="#CE943B" points="0.0285923807 10.2877745 0.0285923807 13.8218501 19.5198313 16.5987103 32.0823402 6.5257239 32.0823402 3.22346988 19.5198313 13.1269259"></polygon>
        </g>
    </g>
</svg>