<?xml version="1.0" encoding="UTF-8" standalone="no"?>
<svg width="750px" height="650px" viewBox="0 0 750 650" version="1.1" xmlns="http://www.w3.org/2000/svg" xmlns:xlink="http://www.w3.org/1999/xlink">
    <!-- Generator: Sketch 49 (51002) - http://www.bohemiancoding.com/sketch -->
    <title>Artboard 14 Copy 13</title>
    <desc>Created with Sketch.</desc>
    <defs>
        <ellipse id="path-1" cx="38.974359" cy="192.535149" rx="6.15384615" ry="7.13093146"></ellipse>
        <ellipse id="path-2" cx="44.7179487" cy="302.826889" rx="6.15384615" ry="7.13093146"></ellipse>
        <ellipse id="path-3" cx="6.15384615" cy="233.419156" rx="6.15384615" ry="7.13093146"></ellipse>
        <ellipse id="path-4" cx="145.641026" cy="312.334798" rx="6.15384615" ry="7.13093146"></ellipse>
        <ellipse id="path-5" cx="168.615385" cy="410.266257" rx="6.15384615" ry="7.13093146"></ellipse>
        <ellipse id="path-6" cx="307.282051" cy="365.579086" rx="6.15384615" ry="7.13093146"></ellipse>
        <ellipse id="path-7" cx="276.102564" cy="421.675747" rx="6.15384615" ry="7.13093146"></ellipse>
        <ellipse id="path-8" cx="313.846154" cy="469.21529" rx="6.15384615" ry="7.13093146"></ellipse>
        <ellipse id="path-9" cx="203.897436" cy="505.345343" rx="6.15384615" ry="7.13093146"></ellipse>
        <ellipse id="path-10" cx="221.948718" cy="421.675747" rx="6.15384615" ry="7.13093146"></ellipse>
        <ellipse id="path-11" cx="207.179487" cy="533.869069" rx="6.15384615" ry="7.13093146"></ellipse>
        <ellipse id="path-12" cx="151.384615" cy="459.707381" rx="6.15384615" ry="7.13093146"></ellipse>
        <ellipse id="path-13" cx="85.7435897" cy="175.420914" rx="6.15384615" ry="7.13093146"></ellipse>
        <ellipse id="path-14" cx="198.974359" cy="129.782953" rx="6.15384615" ry="7.13093146"></ellipse>
        <ellipse id="path-15" cx="141.538462" cy="111.717926" rx="6.15384615" ry="7.13093146"></ellipse>
        <ellipse id="path-16" cx="164.512821" cy="233.419156" rx="6.15384615" ry="7.13093146"></ellipse>
        <ellipse id="path-17" cx="156.307692" cy="40.4086116" rx="6.15384615" ry="7.13093146"></ellipse>
        <ellipse id="path-18" cx="128.410256" cy="44.211775" rx="6.15384615" ry="7.13093146"></ellipse>
        <ellipse id="path-19" cx="124.307692" cy="7.13093146" rx="6.15384615" ry="7.13093146"></ellipse>
        <ellipse id="path-20" cx="25.8461538" cy="43.2609842" rx="6.15384615" ry="7.13093146"></ellipse>
        <ellipse id="path-21" cx="7.79487179" cy="11.8848858" rx="6.15384615" ry="7.13093146"></ellipse>
        <ellipse id="path-22" cx="191.589744" cy="78.440246" rx="6.15384615" ry="7.13093146"></ellipse>
        <ellipse id="path-23" cx="282.666667" cy="105.06239" rx="6.15384615" ry="7.13093146"></ellipse>
        <ellipse id="path-24" cx="259.692308" cy="222.960457" rx="6.15384615" ry="7.13093146"></ellipse>
        <ellipse id="path-25" cx="276.923077" cy="321.842707" rx="6.15384615" ry="7.13093146"></ellipse>
        <ellipse id="path-26" cx="257.230769" cy="269.549209" rx="6.15384615" ry="7.13093146"></ellipse>
        <ellipse id="path-27" cx="198.974359" cy="254.336555" rx="6.15384615" ry="7.13093146"></ellipse>
        <ellipse id="path-28" cx="21.7435897" cy="121.225835" rx="6.15384615" ry="7.13093146"></ellipse>
        <ellipse id="path-29" cx="8.61538462" cy="163.060633" rx="6.15384615" ry="7.13093146"></ellipse>
        <linearGradient x1="50%" y1="69.2309975%" x2="50%" y2="23.555041%" id="linearGradient-30">
            <stop stop-color="#FFFCFC" stop-opacity="0.369735054" offset="0%"></stop>
            <stop stop-color="#000000" offset="100%"></stop>
        </linearGradient>
        <linearGradient x1="26.9485179%" y1="94.6100597%" x2="143.377619%" y2="76.5952273%" id="linearGradient-31">
            <stop stop-color="#563918" offset="0%"></stop>
            <stop stop-color="#3C230D" offset="100%"></stop>
        </linearGradient>
        <linearGradient x1="100%" y1="98.3724001%" x2="17.3791727%" y2="2.70727775%" id="linearGradient-32">
            <stop stop-color="#5A3915" offset="0%"></stop>
            <stop stop-color="#3C230D" offset="100%"></stop>
        </linearGradient>
    </defs>
    <g id="Artboard-14-Copy-13" stroke="none" stroke-width="1" fill="none" fill-rule="evenodd">
        <path d="M108,650 C61.3333333,635.333333 33,590.666667 23,516 C13,441.333333 28.6666667,387.666667 70,355 C36.6666667,303 31.6666667,250 55,196 C78.3333333,142 122.666667,110.333333 188,101 C208.666667,57 245.666667,33.6666667 299,31 C352.333333,28.3333333 389.333333,41 410,69 C449.502934,29.9057645 491.502934,24.9057645 536,54 C588,88 609,112.333333 599,127 C656.333333,117 694,141.333333 712,200 C730,258.666667 719,306.333333 679,343 C720.333333,379 739.666667,427.666667 737,489 C734.333333,550.333333 720.333333,595.666667 695,625 L649,650 L108,650 Z" id="Path-278" fill="#000000"></path>
        <g id="Group-2" transform="translate(413.000000, 45.000000)" stroke="#AFFF00" stroke-linecap="round" stroke-linejoin="round" stroke-width="8.19672131">
            <polyline id="Path-126" points="241.970334 594.390805 211.147009 522.948147 260 429.348941 135 270.803015 174.091524 204.066445 200.113613 196.195402 160.285371 261.349174"></polyline>
            <path d="M122,677.977011 L197,539.827586" id="Path-126-Copy"></path>
            <path d="M139,595.551724 L214,457.402299" id="Path-126-Copy-3"></path>
            <path d="M204,707 L279,568.850575" id="Path-126-Copy-2" transform="translate(241.500000, 637.925287) scale(-1, 1) translate(-241.500000, -637.925287) "></path>
            <polyline id="Path-127" points="299 401.636261 283.604397 424.896552 169 285.271678 235.634077 169.432022 175.507514 181.260098 183.914311 132.344828 204.480623 149.234136 197.915259 156.324287"></polyline>
            <polyline id="Path-127-Copy" points="5.01103332 192.261438 11.8294143 171.46728 26.4305416 174.178423 4 242.300479 119.214757 251.91954 154 192.261438 37.8528886 83.7794518 66.8474308 24.3793103 82.5512372 34.6527562 60.4997438 77.9459304 136.058809 142.54929"></polyline>
            <polyline id="Path-128" points="263.388425 580.45977 237 521.371701 269 456.241379"></polyline>
            <polyline id="Path-129" points="58.5269724 377.298851 3.31719706 371.230895 1 287.908046 98 298.269957 64.0113106 361.357267 22.3795162 348.649963 19.9340487 310.083298 65.8301736 316.421048 55.8047922 339.560794 40.6572201 334.623087"></polyline>
            <path d="M8,264.689655 L105.570144,275.138008 L119.44876,296.886739 L83.2512383,372.77457 L119.44876,385.059756 L80.7717244,429.713078 C89.1433139,454.36413 95.3509472,466.689655 99.3946243,466.689655 C103.438301,466.689655 126.89787,445.004949 169.773331,401.635537 L193,432.196539 L169.773331,438.986573" id="Path-130"></path>
            <polyline id="Path-131" points="106 439.988506 155.014649 376.539936 114.107735 355.756529 135.747087 304.16092 240 431.255951 141.727552 344.943324"></polyline>
            <polyline id="Path-132" points="118.489502 476.951218 183 456.241379 128.052051 560.724138 115 508.482759 139.715107 494.484746"></polyline>
            <polyline id="Path-134" points="81.9405578 203.842013 98.8989781 197.654087 72.1289917 178.117624 58.2525243 221.131547 105.649069 226.37931 124 197.654087 1 77.5578392 37.0895716 11.6091954 19.369434 11.6091954 4.88103147 37.3588607"></polyline>
            <polyline id="Path-135" points="14.7585282 152.357559 5.68434189e-14 152.357559 2.36875575 107.965517 54 164.015121 33.9107649 218.252874"></polyline>
            <polyline id="Path-138" points="117.106384 76.6044998 93.6121583 83.1785344 136 117.252874 136 50.1439548 84.3272555 68.6100832 106.827422 30.9461739 62.6127792 1.42108547e-14 24 68.6100832"></polyline>
            <polyline id="Path-139" points="150.160706 78.6120206 150.160706 160.803553 158.523134 168.333333 170 57.3363329 132.719954 26.7011494 122 35.7250928"></polyline>
            <polyline id="Path-140" points="197 279.781609 257.618118 166.901951 202.354355 124.821811 217.417907 113.770115 282.411236 161.23978 261.036596 201.216467 295 216.678256 263.367534 279.781609 222.309442 270.569476 252.753509 220.168296 270.760227 226.533731 257.618118 246.354951"></polyline>
            <polyline id="Path-148" points="270.288139 348.903883 218.721113 287.908046 208 303.778401 275.439985 384.264368 296 348.903883 253.725745 303.778401"></polyline>
            <polyline id="Path-149" points="189 105.458432 213.673882 87.0689655 273 132.344828"></polyline>
            <polyline id="Path-193" points="280.948078 572.333333 259 522.846179 302.991496 436.505747 309 459.754499 276.481679 522.846179 286.284086 541.386035 305.641328 504.41954"></polyline>
        </g>
        <g id="Dots" transform="translate(408.000000, 75.000000)">
            <g id="Oval-Copy-2">
                <use fill="#2D4B85" fill-rule="evenodd" xlink:href="#path-1"></use>
                <ellipse stroke="#AFFF00" stroke-width="1.63934426" cx="38.974359" cy="192.535149" rx="6.97351828" ry="7.95060359"></ellipse>
            </g>
            <g id="Oval-Copy-11">
                <use fill="#2D4B85" fill-rule="evenodd" xlink:href="#path-2"></use>
                <ellipse stroke="#AFFF00" stroke-width="1.63934426" cx="44.7179487" cy="302.826889" rx="6.97351828" ry="7.95060359"></ellipse>
            </g>
            <g id="Oval-Copy-12">
                <use fill="#2D4B85" fill-rule="evenodd" xlink:href="#path-3"></use>
                <ellipse stroke="#AFFF00" stroke-width="1.63934426" cx="6.15384615" cy="233.419156" rx="6.97351828" ry="7.95060359"></ellipse>
            </g>
            <g id="Oval-Copy-21">
                <use fill="#2D4B85" fill-rule="evenodd" xlink:href="#path-4"></use>
                <ellipse stroke="#AFFF00" stroke-width="1.63934426" cx="145.641026" cy="312.334798" rx="6.97351828" ry="7.95060359"></ellipse>
            </g>
            <g id="Oval-Copy-15">
                <use fill="#2D4B85" fill-rule="evenodd" xlink:href="#path-5"></use>
                <ellipse stroke="#AFFF00" stroke-width="1.63934426" cx="168.615385" cy="410.266257" rx="6.97351828" ry="7.95060359"></ellipse>
            </g>
            <g id="Oval-Copy-17">
                <use fill="#2D4B85" fill-rule="evenodd" xlink:href="#path-6"></use>
                <ellipse stroke="#AFFF00" stroke-width="1.63934426" cx="307.282051" cy="365.579086" rx="6.97351828" ry="7.95060359"></ellipse>
            </g>
            <g id="Oval-Copy-24">
                <use fill="#2D4B85" fill-rule="evenodd" xlink:href="#path-7"></use>
                <ellipse stroke="#AFFF00" stroke-width="1.63934426" cx="276.102564" cy="421.675747" rx="6.97351828" ry="7.95060359"></ellipse>
            </g>
            <g id="Oval-Copy-26">
                <use fill="#2D4B85" fill-rule="evenodd" xlink:href="#path-8"></use>
                <ellipse stroke="#AFFF00" stroke-width="1.63934426" cx="313.846154" cy="469.21529" rx="6.97351828" ry="7.95060359"></ellipse>
            </g>
            <g id="Oval-Copy-18">
                <use fill="#2D4B85" fill-rule="evenodd" xlink:href="#path-9"></use>
                <ellipse stroke="#AFFF00" stroke-width="1.63934426" cx="203.897436" cy="505.345343" rx="6.97351828" ry="7.95060359"></ellipse>
            </g>
            <g id="Oval-Copy-31">
                <use fill="#2D4B85" fill-rule="evenodd" xlink:href="#path-10"></use>
                <ellipse stroke="#AFFF00" stroke-width="1.63934426" cx="221.948718" cy="421.675747" rx="6.97351828" ry="7.95060359"></ellipse>
            </g>
            <g id="Oval-Copy-19">
                <use fill="#2D4B85" fill-rule="evenodd" xlink:href="#path-11"></use>
                <ellipse stroke="#AFFF00" stroke-width="1.63934426" cx="207.179487" cy="533.869069" rx="6.97351828" ry="7.95060359"></ellipse>
            </g>
            <g id="Oval-Copy-20">
                <use fill="#2D4B85" fill-rule="evenodd" xlink:href="#path-12"></use>
                <ellipse stroke="#AFFF00" stroke-width="1.63934426" cx="151.384615" cy="459.707381" rx="6.97351828" ry="7.95060359"></ellipse>
            </g>
            <g id="Oval-Copy-3">
                <use fill="#2D4B85" fill-rule="evenodd" xlink:href="#path-13"></use>
                <ellipse stroke="#AFFF00" stroke-width="1.63934426" cx="85.7435897" cy="175.420914" rx="6.97351828" ry="7.95060359"></ellipse>
            </g>
            <g id="Oval-Copy-4">
                <use fill="#2D4B85" fill-rule="evenodd" xlink:href="#path-14"></use>
                <ellipse stroke="#AFFF00" stroke-width="1.63934426" cx="198.974359" cy="129.782953" rx="6.97351828" ry="7.95060359"></ellipse>
            </g>
            <g id="Oval-Copy-23">
                <use fill="#2D4B85" fill-rule="evenodd" xlink:href="#path-15"></use>
                <ellipse stroke="#AFFF00" stroke-width="1.63934426" cx="141.538462" cy="111.717926" rx="6.97351828" ry="7.95060359"></ellipse>
            </g>
            <g id="Oval-Copy-22">
                <use fill="#2D4B85" fill-rule="evenodd" xlink:href="#path-16"></use>
                <ellipse stroke="#AFFF00" stroke-width="1.63934426" cx="164.512821" cy="233.419156" rx="6.97351828" ry="7.95060359"></ellipse>
            </g>
            <g id="Oval-Copy-5">
                <use fill="#2D4B85" fill-rule="evenodd" xlink:href="#path-17"></use>
                <ellipse stroke="#AFFF00" stroke-width="1.63934426" cx="156.307692" cy="40.4086116" rx="6.97351828" ry="7.95060359"></ellipse>
            </g>
            <g id="Oval-Copy-8">
                <use fill="#2D4B85" fill-rule="evenodd" xlink:href="#path-18"></use>
                <ellipse stroke="#AFFF00" stroke-width="1.63934426" cx="128.410256" cy="44.211775" rx="6.97351828" ry="7.95060359"></ellipse>
            </g>
            <g id="Oval-Copy-9">
                <use fill="#2D4B85" fill-rule="evenodd" xlink:href="#path-19"></use>
                <ellipse stroke="#AFFF00" stroke-width="1.63934426" cx="124.307692" cy="7.13093146" rx="6.97351828" ry="7.95060359"></ellipse>
            </g>
            <g id="Oval-Copy-10">
                <use fill="#2D4B85" fill-rule="evenodd" xlink:href="#path-20"></use>
                <ellipse stroke="#AFFF00" stroke-width="1.63934426" cx="25.8461538" cy="43.2609842" rx="6.97351828" ry="7.95060359"></ellipse>
            </g>
            <g id="Oval-Copy-30">
                <use fill="#2D4B85" fill-rule="evenodd" xlink:href="#path-21"></use>
                <ellipse stroke="#AFFF00" stroke-width="1.63934426" cx="7.79487179" cy="11.8848858" rx="6.97351828" ry="7.95060359"></ellipse>
            </g>
            <g id="Oval-Copy-6">
                <use fill="#2D4B85" fill-rule="evenodd" xlink:href="#path-22"></use>
                <ellipse stroke="#AFFF00" stroke-width="1.63934426" cx="191.589744" cy="78.440246" rx="6.97351828" ry="7.95060359"></ellipse>
            </g>
            <g id="Oval-Copy-25">
                <use fill="#2D4B85" fill-rule="evenodd" xlink:href="#path-23"></use>
                <ellipse stroke="#AFFF00" stroke-width="1.63934426" cx="282.666667" cy="105.06239" rx="6.97351828" ry="7.95060359"></ellipse>
            </g>
            <g id="Oval-Copy-7">
                <use fill="#2D4B85" fill-rule="evenodd" xlink:href="#path-24"></use>
                <ellipse stroke="#AFFF00" stroke-width="1.63934426" cx="259.692308" cy="222.960457" rx="6.97351828" ry="7.95060359"></ellipse>
            </g>
            <g id="Oval-Copy-28">
                <use fill="#2D4B85" fill-rule="evenodd" xlink:href="#path-25"></use>
                <ellipse stroke="#AFFF00" stroke-width="1.63934426" cx="276.923077" cy="321.842707" rx="6.97351828" ry="7.95060359"></ellipse>
            </g>
            <g id="Oval-Copy-29">
                <use fill="#2D4B85" fill-rule="evenodd" xlink:href="#path-26"></use>
                <ellipse stroke="#AFFF00" stroke-width="1.63934426" cx="257.230769" cy="269.549209" rx="6.97351828" ry="7.95060359"></ellipse>
            </g>
            <g id="Oval-Copy-27">
                <use fill="#2D4B85" fill-rule="evenodd" xlink:href="#path-27"></use>
                <ellipse stroke="#AFFF00" stroke-width="1.63934426" cx="198.974359" cy="254.336555" rx="6.97351828" ry="7.95060359"></ellipse>
            </g>
            <g id="Oval-Copy">
                <use fill="#2D4B85" fill-rule="evenodd" xlink:href="#path-28"></use>
                <ellipse stroke="#AFFF00" stroke-width="1.63934426" cx="21.7435897" cy="121.225835" rx="6.97351828" ry="7.95060359"></ellipse>
            </g>
            <g id="Oval">
                <use fill="#2D4B85" fill-rule="evenodd" xlink:href="#path-29"></use>
                <ellipse stroke="#AFFF00" stroke-width="1.63934426" cx="8.61538462" cy="163.060633" rx="6.97351828" ry="7.95060359"></ellipse>
            </g>
        </g>
        <g id="Squiggles" transform="translate(20.000000, -22.000000)">
            <path d="M235.020497,376.382297 C261.740912,349.789223 268.883718,329.857551 256.448913,316.587283 C237.161088,296.003558 189.843597,283.354385 179.272456,302.458311 C168.701316,321.562237 191.638436,360.788829 204.674724,358.122611 C217.711013,355.456393 234.73027,325.019779 228.157197,326.862619 C221.584124,328.705459 229.426105,338.4782 217.384437,340.350242 C205.342768,342.222284 193.368544,323.010987 201.723526,314.296187 C210.078508,305.581387 221.307399,300.165287 235.455756,318.659229 C244.476052,330.450058 243.883758,349.397944 233.678873,375.502887 L233.678873,375.502887 C233.514054,375.924508 233.722233,376.399913 234.143855,376.564732 C234.446403,376.683004 234.790249,376.611447 235.020497,376.382297 Z" id="Path-133" fill="#F1B154" transform="translate(219.470049, 334.833448) scale(1, -1) rotate(-269.000000) translate(-219.470049, -334.833448) "></path>
            <path d="M143.101936,268.244369 C147.784831,269.561266 150.00079,272.950658 149.749812,278.412546 C147.638355,324.363027 105.522604,261.856725 104.937825,245.605611 C103.359886,201.754353 162.353723,211.672133 166.929099,221.210426 C187.893947,264.915881 192.909381,360.221373 142.650249,370.314677 C80.0284535,382.890717 -30.3629432,320.051765 65.7440306,347.641218 C134.956988,367.510199 163.260537,296.344892 158.576675,270.724813 C156.804212,261.029684 148.025887,240.956109 138.573493,255.543841 C134.740965,261.458522 136.250446,265.692031 143.101936,268.244369 Z" id="Path-141" fill="#CB81B7" transform="translate(105.000000, 292.500000) rotate(-183.000000) translate(-105.000000, -292.500000) "></path>
            <path d="M237.023682,538.03981 C236.501428,542.052819 236.162705,544.655571 220.238804,542.238761 C210.563615,540.770333 185.029177,504.08656 182.188117,473.633146 C178.576989,434.925352 228.046874,442.891747 236.843845,454.743519 C251.800347,474.893756 248.140663,546.665765 245.944652,548.518645 C242.822569,551.152897 244.490492,542.796716 244.298909,527.823253 C244.02368,506.312377 217.47748,446.212976 215.576147,482.974006 C212.046151,551.224161 238.302725,528.211626 237.023682,538.03981 Z" id="Path-141-Copy-4" fill="#E57676" transform="translate(215.000000, 497.000000) rotate(-126.000000) translate(-215.000000, -497.000000) "></path>
            <path d="M129.180766,486.636223 C93.8139732,531.0497 142.679128,530.701192 143.973246,558.117746 C145.267365,585.5343 99.1930601,593.578811 96.8380188,590.316612 C91.315613,582.666986 123.755773,565.833837 123.447932,559.312065 C121.730735,522.932388 69.6798257,488.172166 101.014792,461.049755 C131.716732,434.475268 153.714795,455.826488 129.180766,486.636223 Z" id="Path-141-Copy-4" fill="#EF66CD" transform="translate(117.500000, 520.000000) scale(-1, 1) rotate(224.000000) translate(-117.500000, -520.000000) "></path>
            <path d="M163.143028,288.738948 C160.531642,227.895808 120.663862,179.654177 146.899937,152.893283 C173.136012,126.132388 179.064634,200.337787 239.148968,180.448977 C253.494284,175.700464 286.11457,173.937592 272.923459,186.718112 C243.936751,214.802569 192.931562,181.072247 169.503886,198.217222 C154.823186,208.960935 171.617549,247.234463 167.720839,287.633537 C167.274947,292.256313 165.461991,296.421178 163.143028,288.738948 Z" id="Path-142" fill="#5CF3EA" transform="translate(207.000000, 220.000000) scale(-1, 1) rotate(7.000000) translate(-207.000000, -220.000000) "></path>
            <path d="M231.588043,58.1533295 C229.672551,62.4600471 227.955558,63.667537 226.437063,61.7757994 C210.802205,42.2979248 227.451624,25.9151718 236.317723,25.1018465 C253.080017,23.5641693 285.079107,39.552723 309.803347,65.3109206 C370.289597,128.32668 359.454639,165.070192 331.874201,173.712339 C304.293764,182.354485 295.588545,145.03464 312.185897,134.985547 C328.783248,124.936455 327.000294,93.8602467 299.562417,69.7798874 C287.769851,59.4303531 261.77192,42.5175448 244.20214,46.2784317 C237.746538,47.6602809 233.541839,51.6185802 231.588043,58.1533295 Z" id="Path-143" fill="#FC6868" transform="translate(287.000000, 100.000000) rotate(-49.000000) translate(-287.000000, -100.000000) "></path>
            <path d="M329.208944,351 C292.827653,371.481428 285.052289,392.522676 305.88285,414.123745 C337.128692,446.525349 340.303283,472.654271 325.34818,487.888497 C310.393077,503.122723 268.330677,451.906146 238.954576,453.158957 C209.578476,454.411769 199.149646,537.539109 175.888993,504.057607 C152.62834,470.576105 203.865254,443.808283 232.33877,434.054029 C260.812285,424.299774 291.008223,461.888336 305.456319,453.158957 C319.904416,444.429579 291.477392,423.319564 267.592552,402.401598 C251.669325,388.456288 272.208123,371.322422 329.208944,351 Z" id="Path-143-Copy" fill="#5DD7B5" transform="translate(252.000000, 431.500000) scale(-1, 1) rotate(-167.000000) translate(-252.000000, -431.500000) "></path>
            <path d="M171.310412,165.224339 C144.866962,177.080065 90.2524905,175.102383 69.4785512,191.605691 C60.5708012,198.682218 36.0710889,252.180234 43.3239905,223.72597 C53.9565306,182.012856 107.203943,144.539497 133.52354,135.704598 C158.222417,127.413739 165.92947,129.153551 172.499539,115.469365 C177.23827,105.599502 182.434975,98.4028855 189.66753,92.5819647 C190.54379,91.8767317 193.336806,91.301101 194.477829,94.0736113 C196.386707,98.7118954 201.341796,151.759989 171.310412,165.224339 Z" id="Path-143-Copy-2" fill="#94AEE7" transform="translate(119.000000, 162.000000) scale(-1, -1) rotate(-177.000000) translate(-119.000000, -162.000000) "></path>
            <path d="M285.102476,292.172212 C301.183272,289.547992 311.932843,289.500127 317.351188,292.028618 C325.478705,295.821355 368.936252,353.449582 366.006217,360.007527 C359.321322,374.969519 349.700788,364.85224 342.572673,399.004647 C339.798276,412.297406 361.273952,438.454481 353.189141,446.174004 C345.10433,453.893528 328.730921,435.652078 325.850238,430.301114 C319.078289,417.721994 317.278166,414.282154 321.635685,397.616779 C327.875777,373.751481 353.828385,364.70369 358.705153,359.597174 C362.525972,355.596353 337.991746,333.121365 285.102476,292.172212 Z" id="Path-143-Copy-3" fill="#EC7FC9" transform="translate(325.625093, 369.109256) scale(-1, 1) rotate(-150.000000) translate(-325.625093, -369.109256) "></path>
            <path d="M81.661934,280.608816 C108.49224,295.26657 139.802145,313 150.615659,313 C171.125333,313 161.036276,279.857413 176.8667,271.223604 C192.697123,262.589796 208.169346,277.362617 223.669093,262.769507 C239.16884,248.176397 217.943362,207.262303 197.405031,220.653256 C176.8667,234.044209 221.734534,243.485219 205.915855,249.93938 C190.097176,256.393542 174.751249,246.528991 157.951774,256.436561 C141.152299,266.344131 171.806011,295.404273 148.222524,301.223699 C136.655756,304.077898 121.981745,258.042281 99.9237554,251.902921 C91.9990521,249.697252 74.5667398,276.732617 81.661934,280.608816 Z" id="Path-144" fill="#71F364"></path>
            <path d="M83.219423,669.135303 C88.3365234,687.908224 112.806303,674.704248 117.580755,671.486861 C141.207956,655.565065 121.084988,628.415645 137.730087,619.744726 C154.375187,611.073807 189.967372,639.055277 206.264777,624.399442 C214.047766,617.400401 220.33555,594.300023 208.18305,583.871816 C204.974911,581.118873 193.135007,584.356952 172.663337,593.586051 C189.032901,597.303428 191.673433,601.322751 180.584933,605.64402 C163.952184,612.125923 137.348618,579.731722 119.684597,589.681877 C102.020577,599.632033 131.027822,638.105637 106.230668,643.950076 C98.2881116,645.822057 94.1242409,635.792697 91.6370177,613.890644 C90.3156848,602.255217 83.7409931,540.092248 76.2078785,539.011515 C68.6747639,537.930782 67.9593208,613.151118 83.219423,669.135303 Z" id="Path-144-Copy" fill="#B6FF0E" transform="translate(143.000000, 609.000000) scale(1, -1) rotate(170.000000) translate(-143.000000, -609.000000) "></path>
            <path d="M101.530301,358.960342 C82.255718,363.228774 85.3455972,331.492973 104.302504,334.159359 C128.936673,337.624281 136.405978,334.539572 153.755361,344.882652 C171.268096,355.323117 198.022734,367.900155 200.795955,387.003049 C203.569176,406.105944 177.157178,421.779878 177.157178,399.620451 C177.157178,377.461024 132.75956,367.486076 127.171118,407.214298 C127.171118,482.524082 67.7692639,470.315721 53.9100178,464.590334 C40.0507717,458.864948 106.090656,449.358982 108.106912,407.529002 C110.123169,365.699023 120.804885,354.691909 101.530301,358.960342 Z" id="Path-145" fill="#F8FF43" transform="translate(126.500000, 401.500000) rotate(-187.000000) translate(-126.500000, -401.500000) "></path>
            <path d="M188.228538,510.997825 C167.661621,497.076524 137.204802,471.58029 113.115792,476.840747 C90.349109,481.812439 73.7558814,517.049556 60.2875637,521.81596 C32.5686659,531.62561 -3.1037335,483.627078 -25.2159937,501.642326 C-44.7587076,517.56412 -44.8003794,539.411898 -54.6419614,564.798944 C-57.6081925,572.450544 -60.4200773,574.747926 -63.0776158,571.691092 L-63.0776528,571.691124 C-63.160069,571.596325 -63.2195956,571.483853 -63.2516361,571.362392 C-74.2496438,529.670606 -69.4662689,502.824974 -48.9015115,490.825497 C-18.0103495,472.800592 -1.30584179,457.643645 55.0947421,455.5251 C111.495326,453.406554 148.360528,455.935226 194.648342,497.091294 C200.668575,505.280214 193.885159,512.18664 188.228538,510.997825 Z" id="Path-143" fill="#55CAF5" transform="translate(64.000000, 514.000000) rotate(-88.000000) translate(-64.000000, -514.000000) "></path>
            <path d="M327.400192,75.4019779 C343.758228,71.7394524 327.347012,93.4735291 341.32305,125.533827 C352.672268,151.568339 374.015852,175.908871 373.999991,187.946702 C373.964598,214.808564 320.745059,222.582266 312.909,225.992143 C305.072941,229.402021 341.941591,239.381426 330.371283,260.648368 C318.800975,281.91531 290.844296,293.365059 278.561018,289.125859 C261.670811,283.296717 270.566063,270.95264 257.846259,264.850312 C237.762643,255.215195 223.57268,267.086943 219.553873,263.138779 C215.579169,259.233944 233.333929,238.649745 261.97861,252.513211 C275.682641,259.145694 268.221889,273.252643 290.570429,276.113127 C302.361729,277.622345 312.909,271.203138 312.909,254.814057 C312.909,238.424976 285.404621,222.965044 288.65852,211.842113 C291.91242,200.719182 356.942317,200.131847 357.686828,181.804301 C358.06215,172.565043 339.106297,163.284158 329.448618,146.121472 C319.948745,129.239223 302.632987,80.9472964 327.400192,75.4019779 Z" id="Path-147" fill="#FFEA00" transform="translate(296.500000, 182.500000) scale(1, -1) rotate(22.000000) translate(-296.500000, -182.500000) "></path>
            <path d="M321.679368,326.480984 C318.091788,336.381143 259.128256,340.020762 293.020199,299.897286 C308.772433,281.248771 337.202248,265.46125 339.080437,241.800139 C341.072735,216.701497 263.962066,271.685604 252.165728,262.900007 C242.533852,255.726444 257.570459,195.956134 261.660671,198.053919 C265.750883,200.151705 247.249242,248.229883 262.518799,251.337742 C277.887164,254.465711 359.263376,182.902944 375.607539,214.50222 C380.878805,224.693514 331.881111,278.110777 298.87073,306.823643 C287.089524,317.071092 324.319265,319.196015 321.679368,326.480984 Z" id="Path-146" fill="#A784EC" transform="translate(312.500000, 265.500000) rotate(-781.000000) translate(-312.500000, -265.500000) "></path>
        </g>
        <g id="Head" transform="translate(227.000000, 437.000000)">
            <path d="M155.593378,288.473026 C205.135322,288.473026 242.771764,278.182708 260.859596,220.179985 C267.424399,195.481135 269,138.774516 269,127.471337 C269,48.7175578 222.195695,3.28036335 155.593378,3.28036335 C88.9910601,3.28036335 44.7568481,41.9763618 41.7555083,120.647614 C41.7555083,155.303292 38.4520812,194.753048 52.1589858,227.492228 C72.6600302,276.459329 106.352353,288.473026 155.593378,288.473026 Z" id="Oval-9" fill="#FFBF89"></path>
            <ellipse id="Oval-10" fill="#1A1A1A" cx="102.548993" cy="161.958079" rx="13.7674917" ry="16.0813839"></ellipse>
            <ellipse id="Oval-10-Copy" fill="#1A1A1A" cx="208.814957" cy="161.958079" rx="13.7674917" ry="16.0813839"></ellipse>
            <path d="M247.766391,94.7837038 L242.773705,104.585817 C231.618897,102.595955 223.618246,102.101826 218.771752,103.10343 C213.925258,104.105035 207.429592,107.593852 199.284752,113.569883 L188.841525,109.46521 C196.611704,98.9196687 204.956731,92.431348 213.876608,90.000248 C222.796484,87.5691479 234.093079,89.1636332 247.766391,94.7837038 Z" id="Path-53-Copy" fill="#3C230D" transform="translate(218.303958, 101.234502) rotate(-336.000000) translate(-218.303958, -101.234502) "></path>
            <path d="M121.855388,98.9905933 L116.862702,108.792341 C105.707894,106.802553 97.7072429,106.308443 92.8607491,107.31001 C88.0142554,108.311577 81.5185887,111.800265 73.373749,117.776073 L62.9305223,113.671553 C70.7007007,103.126404 79.0457283,96.6383251 87.9656049,94.2073156 C96.8854815,91.7763061 108.182076,93.370732 121.855388,98.9905933 Z" id="Path-53" fill="#3C230D" transform="translate(92.392955, 105.441151) rotate(-2.000000) translate(-92.392955, -105.441151) "></path>
            <path d="M140.692693,189.526165 C145.799152,193.699047 149.638753,195.785488 152.211495,195.785488 C154.784237,195.785488 158.623837,193.699047 163.730297,189.526165" id="Path-54" stroke="#000000" stroke-width="0.655737705"></path>
            <g id="Group" transform="translate(42.563032, 129.271356)" fill="url(#linearGradient-30)">
                <path d="M10.9987676,6.67327072 C32.7078964,2.8564097 49.0443334,0.854105279 60.0080788,0.666357446 C70.9718241,0.478609613 83.3271128,1.98958474 97.0739447,5.19928282 L120.234971,5.19928282 C135.738703,2.17733257 149.020926,0.666357446 160.08164,0.666357446 C171.142355,0.666357446 188.793294,2.66866187 213.034458,6.67327072 C223.319157,8.05963221 228.461506,9.085788 228.461506,9.75173806 C228.461506,10.3009833 238.325395,18.8621325 231.329539,27.640198 C230.338542,28.8836532 224.240182,29.6354315 213.034458,29.895533 C210.954124,30.526587 209.750338,31.2227491 209.423099,31.9840194 C209.20705,32.4866236 207.827575,40.6325613 204.533289,50.1306431 C203.403015,53.3894468 201.174712,58.4204212 197.84838,65.2235664 C193.626883,71.6526579 183.759973,74.3736841 168.247649,73.3866451 C144.979164,71.9060866 144.745235,70.2809259 139.809678,67.8418084 C134.874122,65.4026908 129.725895,62.8157351 123.548546,46.37939 C119.430314,35.4218266 116.813135,26.7496799 115.697011,20.3629499 L107.145643,20.3629499 C104.459079,31.7455385 101.953599,39.9746536 99.629203,45.0502953 C96.1426097,52.6637578 93.4280082,61.4381598 87.9876668,64.6645045 C82.5473255,67.8908492 77.1288586,73.3866451 54.3965254,73.3866451 C39.2416365,73.3866451 29.4942648,70.6656189 25.1544101,65.2235664 C22.216659,60.4037928 20.2554657,56.6909741 19.2708303,54.0851101 C18.2861948,51.4792461 16.4673213,45.1880176 13.8142097,35.2114246 L10.9987676,29.895533 C4.54830713,28.8177539 1.32307688,28.0659755 1.32307688,27.640198 C1.32307688,27.2421722 -1.72087765,21.6207983 3.91611906,9.75173806 C4.1781392,9.20003776 6.53902205,8.17388198 10.9987676,6.67327072 Z M25.6316815,17.8429603 C22.8328081,22.9440511 22.1007614,28.8189451 23.8629338,42.4930452 C25.0377154,51.609112 28.0294634,58.3493919 32.8381777,62.7138851 C39.9443366,65.7439881 47.2304666,67.2590396 54.6965677,67.2590396 C65.8957193,67.2590396 69.9623932,68.1464208 79.4075291,62.7138851 C88.852665,57.2813493 91.1588377,52.4231162 94.3443513,44.4549207 C97.529865,36.4867252 100.463736,23.7242937 96.1185784,17.8429603 C91.7734207,11.9616269 86.9482682,8.86212129 60.22637,8.86212129 C33.5044717,8.86212129 28.4305548,12.7418695 25.6316815,17.8429603 Z M197.679694,18.4615627 C194.88082,13.3604719 189.806904,9.48072368 163.085005,9.48072368 C136.363107,9.48072368 131.537955,12.5802293 127.192797,18.4615627 C122.847639,24.3428961 125.78151,37.1053275 128.967024,45.0735231 C132.152538,53.0417186 134.380523,57.4440581 143.825659,62.8765939 C153.270795,68.3091296 153.522371,67.877642 168.614808,67.877642 C178.676432,67.877642 185.962562,66.3625905 190.473198,63.3324875 C195.281912,58.9679943 198.27366,52.2277144 199.448441,43.1116476 C201.210614,29.4375475 200.478567,23.5626535 197.679694,18.4615627 Z" id="Combined-Shape"></path>
            </g>
            <path d="M203.448903,60.6090936 C255.832799,109.906574 260.632298,122.609975 260.632298,197.959835 C260.632298,279.504986 230.518959,379.342217 255.128245,384.696027 C255.58563,384.795533 309.271473,385.690367 318.218293,366.784828 C319.571786,347.702387 313.306416,270.307163 299.422185,134.599157 C295.928855,104.814819 289.198778,81.9857854 279.231954,66.112056 C250.865513,20.9340504 227.398162,17.9961979 203.448903,11.4721351 C184.544659,7.14128527 196.2454,53.8300147 203.448903,60.6090936 Z" id="Path-52" fill="url(#linearGradient-31)"></path>
            <path d="M20.3570762,10.9203712 C-18.1769319,52.3239294 -1.81413109,75.9467945 69.4454786,81.7889663 C118.837841,85.8383664 171.481968,139.110956 176.611243,185.486474 C182.750013,240.989178 169.069503,332.774258 158.712951,387.364283 C156.63158,398.335321 195.55018,403.749434 204.40631,378.213143 C210.564489,360.456282 224.669105,323.562808 224.669105,275.585521 C224.669105,221.38194 227.939866,115.686498 203.499045,75.3994199 C161.594279,6.32561206 100.546956,-15.1674042 20.3570762,10.9203712 Z" id="Path-52-Copy" fill="url(#linearGradient-32)" transform="translate(112.442851, 198.354002) scale(-1, 1) translate(-112.442851, -198.354002) "></path>
        </g>
    </g>
</svg>