<?xml version="1.0" encoding="UTF-8" standalone="no"?>
<svg width="32px" height="24px" viewBox="0 0 32 24" version="1.1" xmlns="http://www.w3.org/2000/svg" xmlns:xlink="http://www.w3.org/1999/xlink" style="background: #FFFFFF;">
    <!-- Generator: Sketch 49 (51002) - http://www.bohemiancoding.com/sketch -->
    <title>Desktop Copy 57</title>
    <desc>Created with Sketch.</desc>
    <defs></defs>
    <g id="Desktop-Copy-57" stroke="none" stroke-width="1" fill="none" fill-rule="evenodd" stroke-linecap="round">
        <g id="Group" transform="translate(1.174312, 1.027523)" stroke-width="0.5">
            <path d="M16.1765208,2.50111043e-12 L11.8810296,11.4720829" id="Path-32-Copy-9" stroke="#FF9373"></path>
            <path d="M29.4803901,21.9780957 L16.9752918,10.12361" id="Path-32-Copy-4" stroke="#FF9373" transform="translate(23.229903, 16.051846) scale(-1, 1) translate(-23.229903, -16.051846) "></path>
            <path d="M15.3192151,21.9285497 L2.81411668,10.074064" id="Path-32-Copy-5" stroke="#FF9373"></path>
            <path d="M15.3736253,21.9780957 L11.8810296,11.4720829" id="Path-32-Copy-2" stroke="#FF9373"></path>
            <path d="M20.4720121,2.38742359e-12 L16.1765208,11.4720829" id="Path-32-Copy-10" stroke="#FF9373" transform="translate(18.324266, 5.736041) scale(-1, 1) translate(-18.324266, -5.736041) "></path>
            <path d="M20.4720121,21.9780957 L16.9794164,11.4720829" id="Path-32-Copy-6" stroke="#FF9373" transform="translate(18.725714, 16.725089) scale(-1, 1) translate(-18.725714, -16.725089) "></path>
            <path d="M0.0217894235,14.7677041 L2.70766896,10.2274242" id="Path-32-Copy" stroke="#FF9373"></path>
            <g id="Group-2" transform="translate(0.000000, 10.125226)" stroke="#23C5E8">
                <path d="M0.0217894235,4.64247813 L4.83231994,1.18704385" id="Path-32"></path>
                <path d="M29.4901264,8.18985374 L16.2022049,0.018510468" id="Path-32-Copy-8" transform="translate(22.833324, 4.104182) scale(-1, 1) translate(-22.833324, -4.104182) "></path>
                <path d="M16.1692904,8.17134327 L4.83231994,1.18704385" id="Path-32-Copy-11"></path>
            </g>
        </g>
    </g>
</svg>