<?xml version="1.0" encoding="UTF-8" standalone="no"?>
<svg width="87px" height="65px" viewBox="0 0 87 65" version="1.1" xmlns="http://www.w3.org/2000/svg" xmlns:xlink="http://www.w3.org/1999/xlink">
    <!-- Generator: Sketch 48.2 (47327) - http://www.bohemiancoding.com/sketch -->
    <title>Artboard 16</title>
    <desc>Created with Sketch.</desc>
    <defs></defs>
    <g id="Page-1" stroke="none" stroke-width="1" fill="none" fill-rule="evenodd" stroke-linecap="round">
        <g id="Artboard-16" stroke-width="3">
            <g id="Group-Copy" transform="translate(4.000000, 2.000000)">
                <g id="Group-2" transform="translate(1.000000, 0.000000)" stroke="#FD6E39">
                    <path d="M41.5,0.5 L31,29" id="Path-32-Copy-9"></path>
                    <path d="M75.9690901,56.9188698 L44.0203721,26.0759644" id="Path-32-Copy-4" transform="translate(60.000000, 41.500000) scale(-1, 1) translate(-60.000000, -41.500000) "></path>
                    <path d="M38.9690901,56.9188698 L7.02037212,26.0759644" id="Path-32-Copy-5"></path>
                    <path d="M39,56 L31,29" id="Path-32-Copy-2"></path>
                    <path d="M54,0 L42,29" id="Path-32-Copy-10" transform="translate(48.000000, 14.500000) scale(-1, 1) translate(-48.000000, -14.500000) "></path>
                    <path d="M54,56 L44.5,29.5" id="Path-32-Copy-6" transform="translate(49.000000, 43.000000) scale(-1, 1) translate(-49.000000, -43.000000) "></path>
                    <path d="M0.0558065383,37.9001863 L6.95286536,26.0054495" id="Path-32-Copy"></path>
                </g>
                <g id="Group" transform="translate(0.000000, 26.000000)" stroke="#0152AF">
                    <path d="M0.5,12.5 L13.9016097,3.08093997" id="Path-32"></path>
                    <path d="M76.9815553,21 L43.0839649,0" id="Path-32-Copy-8" transform="translate(60.000000, 10.500000) scale(-1, 1) translate(-60.000000, -10.500000) "></path>
                    <path d="M42.9774326,20.988612 L14.0995766,3.00644935" id="Path-32-Copy-11"></path>
                </g>
            </g>
        </g>
    </g>
</svg>