<?xml version="1.0" encoding="UTF-8" standalone="no"?>
<svg width="390px" height="620px" viewBox="0 0 390 620" version="1.1" xmlns="http://www.w3.org/2000/svg" xmlns:xlink="http://www.w3.org/1999/xlink">
    <!-- Generator: Sketch 49 (51002) - http://www.bohemiancoding.com/sketch -->
    <title>Artboard 14 Copy 17</title>
    <desc>Created with Sketch.</desc>
    <defs>
        <linearGradient x1="50%" y1="69.2309975%" x2="50%" y2="23.555041%" id="linearGradient-1">
            <stop stop-color="#FFFCFC" stop-opacity="0.369735054" offset="0%"></stop>
            <stop stop-color="#000000" offset="100%"></stop>
        </linearGradient>
        <linearGradient x1="100%" y1="98.3724001%" x2="17.3791727%" y2="2.70727775%" id="linearGradient-2">
            <stop stop-color="#5A3915" offset="0%"></stop>
            <stop stop-color="#3C230D" offset="100%"></stop>
        </linearGradient>
    </defs>
    <g id="Artboard-14-Copy-17" stroke="none" stroke-width="1" fill="none" fill-rule="evenodd">
        <path d="M87.9396483,620 C41.2636557,605.34157 12.9246603,560.699988 2.92266187,486.075254 C-7.07933653,411.450521 8.59046096,357.813993 49.9320544,325.165672 C16.5920597,273.194875 11.5910605,220.22464 34.9290568,166.254967 C58.267053,112.285293 102.609246,80.6364104 167.955635,71.3083187 C188.626432,27.3330291 225.633826,4.01279981 278.977818,1.34763075 C332.321809,-1.31753832 369.329203,11.3420147 390,39.3262899 L390,620 L87.9396483,620 Z" id="Path-278" fill="#000000"></path>
        <g id="Squiggles" transform="translate(-2.000000, -51.000000)">
            <path d="M237.020497,377.382297 C263.740912,350.789223 270.883718,330.857551 258.448913,317.587283 C239.161088,297.003558 191.843597,284.354385 181.272456,303.458311 C170.701316,322.562237 193.638436,361.788829 206.674724,359.122611 C219.711013,356.456393 236.73027,326.019779 230.157197,327.862619 C223.584124,329.705459 231.426105,339.4782 219.384437,341.350242 C207.342768,343.222284 195.368544,324.010987 203.723526,315.296187 C212.078508,306.581387 223.307399,301.165287 237.455756,319.659229 C246.476052,331.450058 245.883758,350.397944 235.678873,376.502887 L235.678873,376.502887 C235.514054,376.924508 235.722233,377.399913 236.143855,377.564732 C236.446403,377.683004 236.790249,377.611447 237.020497,377.382297 Z" id="Path-133" fill="#F1B154" transform="translate(221.470049, 335.833448) scale(1, -1) rotate(-269.000000) translate(-221.470049, -335.833448) "></path>
            <path d="M146.883893,272.106795 C151.566788,273.423691 153.782746,276.813084 153.531769,282.274971 C151.420312,328.225452 109.30456,265.719151 108.719782,249.468037 C107.141843,205.616778 157.348276,213.341102 163.7681,221.63777 C192.841521,259.210848 195.139577,361.76183 144.880445,371.855134 C82.2586497,384.431174 -26.5809864,323.91419 69.5259873,351.503643 C138.738945,371.372624 167.042494,300.207317 162.358632,274.587239 C160.586169,264.892109 151.807844,244.818534 142.355449,259.406266 C138.522921,265.320947 140.032402,269.554457 146.883893,272.106795 Z" id="Path-141" fill="#CB81B7" transform="translate(107.941549, 294.407882) rotate(-183.000000) translate(-107.941549, -294.407882) "></path>
            <path d="M239.023682,538.03981 C238.501428,542.052819 238.162705,544.655571 222.238804,542.238761 C212.563615,540.770333 187.029177,504.08656 184.188117,473.633146 C180.576989,434.925352 230.046874,442.891747 238.843845,454.743519 C253.800347,474.893756 250.140663,546.665765 247.944652,548.518645 C244.822569,551.152897 246.490492,542.796716 246.298909,527.823253 C246.02368,506.312377 219.47748,446.212976 217.576147,482.974006 C214.046151,551.224161 240.302725,528.211626 239.023682,538.03981 Z" id="Path-141-Copy-4" fill="#E57676" transform="translate(217.000000, 497.000000) rotate(-126.000000) translate(-217.000000, -497.000000) "></path>
            <path d="M131.180766,486.636223 C95.8139732,531.0497 144.679128,530.701192 145.973246,558.117746 C147.267365,585.5343 101.19306,593.578811 98.8380188,590.316612 C93.315613,582.666986 125.755773,565.833837 125.447932,559.312065 C123.730735,522.932388 71.6798257,488.172166 103.014792,461.049755 C133.716732,434.475268 155.714795,455.826488 131.180766,486.636223 Z" id="Path-141-Copy-4" fill="#EF66CD" transform="translate(119.500000, 520.000000) scale(-1, 1) rotate(224.000000) translate(-119.500000, -520.000000) "></path>
            <path d="M134.069906,290.639462 C131.45852,229.796322 91.5907398,181.554691 117.826815,154.793796 C144.062889,128.032902 149.991512,202.238301 210.075846,182.349491 C224.421162,177.600977 289.554702,173.860759 276.36359,186.641279 C247.376883,214.725735 163.858439,182.972761 140.430764,200.117735 C125.750064,210.861449 142.544427,249.134977 138.647716,289.534051 C138.201825,294.156826 136.388868,298.321691 134.069906,290.639462 Z" id="Path-142" fill="#5CF3EA" transform="translate(193.521559, 221.900514) scale(-1, 1) rotate(7.000000) translate(-193.521559, -221.900514) "></path>
            <path d="M240.588043,58.1533295 C238.672551,62.4600471 236.955558,63.667537 235.437063,61.7757994 C219.802205,42.2979248 236.451624,25.9151718 245.317723,25.1018465 C262.080017,23.5641693 294.079107,39.552723 318.803347,65.3109206 C379.289597,128.32668 368.454639,165.070192 340.874201,173.712339 C313.293764,182.354485 304.588545,145.03464 321.185897,134.985547 C337.783248,124.936455 336.000294,93.8602467 308.562417,69.7798874 C296.769851,59.4303531 270.77192,42.5175448 253.20214,46.2784317 C246.746538,47.6602809 242.541839,51.6185802 240.588043,58.1533295 Z" id="Path-143" fill="#FC6868" transform="translate(296.000000, 100.000000) rotate(-49.000000) translate(-296.000000, -100.000000) "></path>
            <path d="M334.208944,353 C297.827653,373.481428 290.052289,394.522676 310.88285,416.123745 C342.128692,448.525349 345.303283,474.654271 330.34818,489.888497 C315.393077,505.122723 273.330677,453.906146 243.954576,455.158957 C214.578476,456.411769 204.149646,539.539109 180.888993,506.057607 C157.62834,472.576105 208.865254,445.808283 237.33877,436.054029 C265.812285,426.299774 296.008223,463.888336 310.456319,455.158957 C324.904416,446.429579 296.477392,425.319564 272.592552,404.401598 C256.669325,390.456288 277.208123,373.322422 334.208944,353 Z" id="Path-143-Copy" fill="#5DD7B5" transform="translate(257.000000, 433.500000) scale(-1, 1) rotate(-167.000000) translate(-257.000000, -433.500000) "></path>
            <path d="M173.310412,165.224339 C146.866962,177.080065 92.2524905,175.102383 71.4785512,191.605691 C62.5708012,198.682218 38.0710889,252.180234 45.3239905,223.72597 C55.9565306,182.012856 109.203943,144.539497 135.52354,135.704598 C160.222417,127.413739 167.92947,129.153551 174.499539,115.469365 C179.23827,105.599502 184.434975,98.4028855 191.66753,92.5819647 C192.54379,91.8767317 195.336806,91.301101 196.477829,94.0736113 C198.386707,98.7118954 203.341796,151.759989 173.310412,165.224339 Z" id="Path-143-Copy-2" fill="#94AEE7" transform="translate(121.000000, 162.000000) scale(-1, -1) rotate(-177.000000) translate(-121.000000, -162.000000) "></path>
            <path d="M293.102476,292.172212 C309.183272,289.547992 319.932843,289.500127 325.351188,292.028618 C333.478705,295.821355 376.936252,353.449582 374.006217,360.007527 C367.321322,374.969519 357.700788,364.85224 350.572673,399.004647 C347.798276,412.297406 369.273952,438.454481 361.189141,446.174004 C353.10433,453.893528 336.730921,435.652078 333.850238,430.301114 C327.078289,417.721994 325.278166,414.282154 329.635685,397.616779 C335.875777,373.751481 361.828385,364.70369 366.705153,359.597174 C370.525972,355.596353 345.991746,333.121365 293.102476,292.172212 Z" id="Path-143-Copy-3" fill="#EC7FC9" transform="translate(333.625093, 369.109256) scale(-1, 1) rotate(-150.000000) translate(-333.625093, -369.109256) "></path>
            <path d="M83.661934,280.608816 C110.49224,295.26657 141.802145,313 152.615659,313 C173.125333,313 163.036276,279.857413 178.8667,271.223604 C194.697123,262.589796 210.169346,277.362617 225.669093,262.769507 C241.16884,248.176397 219.943362,207.262303 199.405031,220.653256 C178.8667,234.044209 223.734534,243.485219 207.915855,249.93938 C192.097176,256.393542 176.751249,246.528991 159.951774,256.436561 C143.152299,266.344131 173.806011,295.404273 150.222524,301.223699 C138.655756,304.077898 123.981745,258.042281 101.923755,251.902921 C93.9990521,249.697252 76.5667398,276.732617 83.661934,280.608816 Z" id="Path-144" fill="#71F364"></path>
            <path d="M83.8422984,649.662541 C88.9593988,668.435462 120.719987,664.28603 125.494439,661.068643 C149.12164,645.146847 126.917386,628.750937 143.562485,620.080018 C160.207584,611.409099 195.799769,639.390569 212.097174,624.734733 C219.880163,617.735692 226.167948,594.635314 214.015448,584.207107 C210.807309,581.454165 198.967404,584.692243 178.495735,593.921342 C194.865299,597.638719 197.505831,601.658042 186.417331,605.979311 C169.784581,612.461214 143.181015,580.067013 125.516995,590.017169 C107.852974,599.967324 136.86022,638.440928 112.063065,644.285368 C104.120509,646.157348 99.9566383,636.127988 97.4694151,614.225935 C96.1480822,602.590509 89.5733905,540.427539 82.0402759,539.346806 C74.5071612,538.266073 68.5821962,593.678356 83.8422984,649.662541 Z" id="Path-144-Copy" fill="#B6FF0E" transform="translate(147.579012, 601.591655) scale(1, -1) rotate(170.000000) translate(-147.579012, -601.591655) "></path>
            <path d="M103.530301,358.960342 C84.255718,363.228774 87.3455972,331.492973 106.302504,334.159359 C130.936673,337.624281 138.405978,334.539572 155.755361,344.882652 C173.268096,355.323117 200.022734,367.900155 202.795955,387.003049 C205.569176,406.105944 179.157178,421.779878 179.157178,399.620451 C179.157178,377.461024 134.75956,367.486076 129.171118,407.214298 C129.171118,482.524082 69.7692639,470.315721 55.9100178,464.590334 C42.0507717,458.864948 108.090656,449.358982 110.106912,407.529002 C112.123169,365.699023 122.804885,354.691909 103.530301,358.960342 Z" id="Path-145" fill="#F8FF43" transform="translate(128.500000, 401.500000) rotate(-187.000000) translate(-128.500000, -401.500000) "></path>
            <path d="M189.188973,512.001722 C168.622055,498.080421 138.165237,472.584187 114.076227,477.844643 C91.3095437,482.816336 74.7163161,518.053452 61.2479984,522.819857 C33.5291006,532.629506 -2.14329879,484.630975 -24.255559,502.646223 C-43.7982729,518.568017 -43.8399447,540.415795 -53.6815266,565.802841 C-56.6477578,573.45444 -59.4596426,575.751823 -62.1171811,572.694989 L-62.1172181,572.695021 C-62.1996343,572.600221 -62.2591609,572.487749 -62.2912014,572.366288 C-73.2892091,530.674502 -68.5058342,503.828871 -47.9410768,491.829394 C-17.0499147,473.804489 0.14913929,464.234851 56.0551768,456.528996 C111.961214,448.823141 149.320962,456.939123 195.608777,498.095191 C201.629009,506.28411 194.845594,513.190536 189.188973,512.001722 Z" id="Path-143" fill="#55CAF5" transform="translate(64.960435, 513.963698) rotate(-88.000000) translate(-64.960435, -513.963698) "></path>
            <path d="M337.400192,75.4019779 C353.758228,71.7394524 337.347012,93.4735291 351.32305,125.533827 C362.672268,151.568339 384.015852,175.908871 383.999991,187.946702 C383.964598,214.808564 330.745059,222.582266 322.909,225.992143 C315.072941,229.402021 351.941591,239.381426 340.371283,260.648368 C328.800975,281.91531 300.844296,293.365059 288.561018,289.125859 C271.670811,283.296717 280.566063,270.95264 267.846259,264.850312 C247.762643,255.215195 233.57268,267.086943 229.553873,263.138779 C225.579169,259.233944 243.333929,238.649745 271.97861,252.513211 C285.682641,259.145694 278.221889,273.252643 300.570429,276.113127 C312.361729,277.622345 322.909,271.203138 322.909,254.814057 C322.909,238.424976 295.404621,222.965044 298.65852,211.842113 C301.91242,200.719182 366.942317,200.131847 367.686828,181.804301 C368.06215,172.565043 349.106297,163.284158 339.448618,146.121472 C329.948745,129.239223 312.632987,80.9472964 337.400192,75.4019779 Z" id="Path-147" fill="#FFEA00" transform="translate(306.500000, 182.500000) scale(1, -1) rotate(22.000000) translate(-306.500000, -182.500000) "></path>
            <path d="M327.679368,332.094672 C324.091788,342.581507 265.128256,346.436808 299.020199,303.935644 C314.772433,284.182032 343.202248,267.458954 345.080437,242.395703 C347.072735,215.809734 269.962066,274.052159 258.165728,264.745933 C248.533852,257.14727 263.570459,193.835016 267.660671,196.057114 C271.750883,198.279213 253.249242,249.206468 268.518799,252.498497 C283.887164,255.811827 365.263376,180.008303 381.607539,213.480129 C386.878805,224.275352 337.881111,280.858083 304.87073,311.272451 C293.089524,322.127156 330.319265,324.378001 327.679368,332.094672 Z" id="Path-146" fill="#A784EC" transform="translate(318.500000, 267.500000) rotate(-781.000000) translate(-318.500000, -267.500000) "></path>
        </g>
        <g id="Head" transform="translate(229.000000, 407.000000)">
            <path d="M160.883082,213 C160.883082,151 161.146147,66.3679936 160.883082,5 C92.9731266,5 45.4165682,41.9763618 42.3563015,120.647614 C42.3563015,150.312563 39.8882897,183.490231 47.9432487,212.964874 C51.7822952,213 127.228779,212.641043 160.883082,213 Z" id="Oval-9" fill="#FFBF89"></path>
            <ellipse id="Oval-10" fill="#1A1A1A" cx="105" cy="162" rx="14" ry="16"></ellipse>
            <path d="M124,98.963115 L118.916218,108.896039 C107.557881,106.879622 99.4112517,106.378899 94.4763295,107.39387 C89.5414073,108.408841 82.9272216,111.944218 74.6337723,118 L64,113.840549 C71.911952,103.154275 80.4092417,96.5793666 89.4918692,94.115823 C98.5744966,91.6522794 110.077207,93.2680434 124,98.963115 Z" id="Path-53" fill="#3C230D" transform="translate(94.000000, 105.500000) rotate(-2.000000) translate(-94.000000, -105.500000) "></path>
            <path d="M146,190 C151.427021,195.291067 156.427021,197.582628 161,196.874683" id="Path-54" stroke="#000000" stroke-width="0.655737705"></path>
            <g id="Group" transform="translate(44.000000, 129.000000)" fill="url(#linearGradient-1)">
                <path d="M11.1900505,6.67327072 C33.2767294,2.8564097 49.8972784,0.854105279 61.0516976,0.666357446 C72.2061167,0.478609613 84.77628,1.98958474 98.7621872,5.19928282 L116.427176,5.72864403 L116.427176,19.728644 L109.305437,19.728644 C106.374555,31.5341032 103.726705,39.9746536 101.361885,45.0502953 C97.8146551,52.6637578 95.0528431,61.4381598 89.5178871,64.6645045 C83.9829312,67.8908492 78.4702301,73.3866451 55.3425519,73.3866451 C39.9240998,73.3866451 30.0072085,70.6656189 25.5918781,65.2235664 C22.6030357,60.4037928 20.6077347,56.6909741 19.6059751,54.0851101 C18.6042156,51.4792461 16.7537095,45.1880176 14.0544568,35.2114246 L11.1900505,29.895533 C4.62740812,28.8177539 1.34608691,28.0659755 1.34608691,27.640198 C1.34608691,27.2421722 -1.75080596,21.6207983 3.98422548,9.75173806 C4.25080249,9.20003776 6.65274417,8.17388198 11.1900505,6.67327072 Z M26.0774499,17.8429603 C23.2299004,22.9440511 22.4851224,28.8189451 24.2779413,42.4930452 C25.4731539,51.609112 28.5169323,58.3493919 33.4092764,62.7138851 C40.6390207,65.7439881 48.051866,67.2590396 55.6478123,67.2590396 C67.0417318,67.2590396 71.1791305,68.1464208 80.7885296,62.7138851 C90.3979287,57.2813493 92.7442088,52.4231162 95.9851227,44.4549207 C99.2260365,36.4867252 102.210932,23.7242937 97.7902059,17.8429603 C93.3694802,11.9616269 88.460412,8.86212129 61.2737851,8.86212129 C34.0871582,8.86212129 28.9249993,12.7418695 26.0774499,17.8429603 Z" id="Combined-Shape"></path>
            </g>
            <path d="M0.456800273,80.8000319 C50.7092006,84.84907 106.874335,138.905793 112.092923,185.277164 C113.024989,193.559328 113.277405,203.134317 113.389573,212.78823 C133.737821,212.78823 144.929357,212.78823 161,213 C160.31213,161.472411 156.540142,102.887699 139.448905,75.1999526 C105.457631,20.1342 59.0866319,-4.68980702 0.335908875,0.727931447 C0.456800273,16.8057539 -0.560612095,46.8030717 0.456800273,80.8000319 Z" id="Path-52-Copy" fill="url(#linearGradient-2)" transform="translate(80.500000, 106.500000) scale(-1, 1) translate(-80.500000, -106.500000) "></path>
        </g>
    </g>
</svg>