<?xml version="1.0" encoding="UTF-8" standalone="no"?>
<svg width="750px" height="650px" viewBox="0 0 750 650" version="1.1" xmlns="http://www.w3.org/2000/svg" xmlns:xlink="http://www.w3.org/1999/xlink" style="background: #FFFFFF;">
    <!-- Generator: Sketch 49 (51002) - http://www.bohemiancoding.com/sketch -->
    <title>Artboard 14 Copy 15</title>
    <desc>Created with Sketch.</desc>
    <defs>
        <radialGradient cx="50%" cy="89.8911673%" fx="50%" fy="89.8911673%" r="76.9937855%" gradientTransform="translate(0.500000,0.898912),scale(0.863517,1.000000),rotate(-90.000000),translate(-0.500000,-0.898912)" id="radialGradient-1">
            <stop stop-color="#EC7C41" offset="0%"></stop>
            <stop stop-color="#6471E9" offset="100%"></stop>
        </radialGradient>
        <rect id="path-2" x="-4" y="0" width="762" height="658"></rect>
        <linearGradient x1="50%" y1="0%" x2="50%" y2="100%" id="linearGradient-3">
            <stop stop-color="#9F6551" offset="0%"></stop>
            <stop stop-color="#704231" offset="100%"></stop>
        </linearGradient>
        <linearGradient x1="50%" y1="0%" x2="50%" y2="100%" id="linearGradient-4">
            <stop stop-color="#C86464" offset="0%"></stop>
            <stop stop-color="#9F5050" offset="100%"></stop>
        </linearGradient>
        <linearGradient x1="100%" y1="5.62757393%" x2="0%" y2="108.180173%" id="linearGradient-5">
            <stop stop-color="#EDD300" offset="0%"></stop>
            <stop stop-color="#D6A800" offset="100%"></stop>
        </linearGradient>
        <linearGradient x1="100%" y1="0%" x2="-15.27128%" y2="100%" id="linearGradient-6">
            <stop stop-color="#F8D927" offset="0%"></stop>
            <stop stop-color="#EEB71C" offset="100%"></stop>
        </linearGradient>
        <linearGradient x1="0%" y1="0%" x2="89.5540242%" y2="131.400628%" id="linearGradient-7">
            <stop stop-color="#FDCF00" offset="0%"></stop>
            <stop stop-color="#CCA702" offset="100%"></stop>
        </linearGradient>
        <linearGradient x1="50%" y1="0%" x2="50%" y2="100%" id="linearGradient-8">
            <stop stop-color="#F7DA3A" offset="0%"></stop>
            <stop stop-color="#CDB31E" offset="100%"></stop>
        </linearGradient>
        <linearGradient x1="28.126768%" y1="-1.17700927%" x2="147.488879%" y2="96.9641783%" id="linearGradient-9">
            <stop stop-color="#F8D700" offset="0%"></stop>
            <stop stop-color="#C9AF03" offset="100%"></stop>
        </linearGradient>
        <linearGradient x1="-2.12371909%" y1="0%" x2="104.471977%" y2="107.202783%" id="linearGradient-10">
            <stop stop-color="#FFF900" offset="0%"></stop>
            <stop stop-color="#B9AF01" offset="100%"></stop>
        </linearGradient>
        <linearGradient x1="50%" y1="0%" x2="-18.8202609%" y2="129.969298%" id="linearGradient-11">
            <stop stop-color="#EDE601" offset="0%"></stop>
            <stop stop-color="#D3B715" offset="100%"></stop>
        </linearGradient>
        <linearGradient x1="50%" y1="0%" x2="50%" y2="100%" id="linearGradient-12">
            <stop stop-color="#FEEE35" offset="0%"></stop>
            <stop stop-color="#FDDE00" offset="100%"></stop>
        </linearGradient>
        <linearGradient x1="50%" y1="1.05229592%" x2="53.5014686%" y2="90.8356706%" id="linearGradient-13">
            <stop stop-color="#E7DC05" offset="0%"></stop>
            <stop stop-color="#ECE014" offset="100%"></stop>
        </linearGradient>
        <linearGradient x1="50%" y1="0%" x2="81.7453767%" y2="134.998002%" id="linearGradient-14">
            <stop stop-color="#FAE321" offset="0%"></stop>
            <stop stop-color="#DDDC06" offset="100%"></stop>
            <stop stop-color="#D6A800" offset="100%"></stop>
        </linearGradient>
        <linearGradient x1="50%" y1="0%" x2="50%" y2="97.8794643%" id="linearGradient-15">
            <stop stop-color="#F0BD1E" offset="0%"></stop>
            <stop stop-color="#D3BF26" offset="100%"></stop>
        </linearGradient>
        <linearGradient x1="50%" y1="0%" x2="106.871579%" y2="155.770605%" id="linearGradient-16">
            <stop stop-color="#F9EE39" offset="0%"></stop>
            <stop stop-color="#D6BB00" offset="100%"></stop>
        </linearGradient>
        <linearGradient x1="50%" y1="0%" x2="23.3372184%" y2="159.672724%" id="linearGradient-17">
            <stop stop-color="#FDDE00" offset="0%"></stop>
            <stop stop-color="#D8BD0F" offset="100%"></stop>
        </linearGradient>
        <linearGradient x1="50%" y1="69.2309975%" x2="50%" y2="23.555041%" id="linearGradient-18">
            <stop stop-color="#FFFCFC" stop-opacity="0.369735054" offset="0%"></stop>
            <stop stop-color="#000000" offset="100%"></stop>
        </linearGradient>
        <linearGradient x1="26.9485179%" y1="94.6100597%" x2="143.377619%" y2="76.5952273%" id="linearGradient-19">
            <stop stop-color="#563918" offset="0%"></stop>
            <stop stop-color="#3C230D" offset="100%"></stop>
        </linearGradient>
        <linearGradient x1="100%" y1="98.3724001%" x2="17.3791727%" y2="2.70727775%" id="linearGradient-20">
            <stop stop-color="#5A3915" offset="0%"></stop>
            <stop stop-color="#3C230D" offset="100%"></stop>
        </linearGradient>
    </defs>
    <g id="Artboard-14-Copy-15" stroke="none" stroke-width="1" fill="none" fill-rule="evenodd">
        <g id="Rectangle-21">
            <use fill="url(#radialGradient-1)" fill-rule="evenodd" xlink:href="#path-2"></use>
            <rect stroke="#979797" stroke-width="0.82" x="-3.59" y="0.41" width="761.18" height="657.18"></rect>
        </g>
        <g id="Century-Tower" transform="translate(365.000000, 319.000000)">
            <polygon id="Path-172" fill="url(#linearGradient-3)" points="0 50.821026 8.13209219 48.2727471 8.13209219 96.5958062 19.6655271 93.4295152 18.6979026 41.8594551 27.3035316 37.12025 36.3130527 39.9449085 36.3130527 92.6424298 53.2487498 95.2050671 53.2487498 46.9287818 61.8311212 48.2727471 66.42 401.3 1.4022649 401.3"></polygon>
            <polygon id="Path-174" fill="#FFFFFF" points="0 92.0693029 0 98.5830413 26.8672577 92.0693029 62.6864148 97.4085173 62.6864148 89.945789 26.8672577 84.1065608"></polygon>
            <polygon id="Path-173" fill="#FFFFFF" points="1.64 51.139452 1.64 14.0603994 10.3824299 9.8092411 10.3824299 16.7783785 20.7090524 11.7319223 20.7090524 4.4431358 26.8058213 0.861620213 35.0978235 5.03590182 35.0978235 11.7319223 51.1346558 16.7783785 51.1346558 9.8092411 58.8397255 14.0603994 60.68 48.1815354 53.2064501 46.8699189 53.2064501 89.3574151 36.1617369 85.7331734 36.1617369 40.0540629 26.9588193 37.830247 19.4330823 41.5522448 19.4330823 86.652462 7.32908039 90.2925 7.89993343 48.9870987"></polygon>
            <path d="M9.02,69.22425 L14.5968275,67.795585 L14.76,36.6579862 C13.7477658,35.4176834 12.6492041,34.9245223 11.4643149,35.1785029 C10.2794257,35.4324836 9.46465408,36.7641373 9.02,39.1734642 L9.02,69.22425 Z" id="Path-175" fill="#A9A9A9"></path>
            <path d="M44.28,67.3073809 L44.28,36.3853746 C44.6418945,34.4912439 45.7342985,33.7799469 47.5572118,34.2514836 C49.3801251,34.7230203 50.4743878,36.0577477 50.84,38.2556658 L50.2915818,68.221 L44.28,67.3073809 Z" id="Path-178" fill="#A9A9A9"></path>
            <path d="M16.8049703,67.21775 L16.4,36.1810922 C16.5024279,35.0305442 17.0490945,34.361047 18.04,34.1726005 C19.0309055,33.984154 19.5775721,34.2245941 19.68,34.893921 L19.68,66.5965267 L16.8049703,67.21775 Z" id="Path-176" fill="#A9A9A9"></path>
            <path d="M36.08,40.2018756 L36.08,33.8728703 C36.1736337,32.3485175 37.0170422,31.8093916 38.6102253,32.2554926 C40.2034084,32.7015936 41,33.9211462 41,35.9141503 L41,66.2145 L36.08,65.6020711 L36.08,40.2018756 Z" id="Path-177" fill="#A9A9A9"></path>
            <path d="M0.0216428369,1.51842299 L0.0216428369,402 L25.7958462,402 C26.4940597,254.042227 26.8431664,151.312018 26.8431664,93.8093721 C26.8431664,77.0403161 26.902545,63.1853689 26.8431664,51.6964039 C26.8419869,51.4681922 25.4833074,51.15681 25.4820518,50.9304864 C25.4146471,38.7805404 25.4146471,26.7342793 25.4820518,14.7917031 L16.5022395,10.5107797 L16.5022395,17.5021516 L6.16447433,12.3933034 L6.16447433,5.02743611 L0.0216428369,1.51842299 Z" id="Path-187" fill-opacity="0.2" fill="#1B1A1A" transform="translate(13.445600, 201.759211) scale(-1, 1) translate(-13.445600, -201.759211) "></path>
        </g>
        <g id="Left-Under" transform="translate(-35.000000, 316.720816)">
            <polygon id="Path-152" fill="#844545" points="311.576242 338.94374 311.576242 316.774353 265.771333 316.774353 265.771333 272.701893 310.49287 281.594672 310.49287 235.75275 265.771333 226.859971 265.771333 155.228282 244.885449 150.402674 244.885449 309.014121 4.52575502 303.385122 4.52575502 338.381469"></polygon>
            <polygon id="Path-170" fill="#432121" points="13.1231451 98.7123831 245.045392 150.043986 245.045392 310.383498 9.00575734 294.258918"></polygon>
            <polygon id="Path-150" fill="#6A3434" points="267.066443 155.487727 0.535678447 96.5212726 7.27214453 0.0490867168 350.326379 96.5212726"></polygon>
            <polygon id="Path-171" fill="#B75C5C" points="108.817476 337.821466 118.911085 34.078051 98.5427072 62.2933064 89.1465627 337.821466"></polygon>
            <polygon id="Path-171-Copy" fill="#B75C5C" points="344.983167 350.403804 344.983167 95.2543474 326.905576 108.112226 326.905576 338.94374"></polygon>
            <polygon id="Path-151" fill="#944D4D" points="311.604503 338.94374 311.604503 167.630684 287.969139 139.909302 287.969139 338.94374"></polygon>
            <polygon id="Path-169" fill="#432121" points="265.079026 227.066298 265.079026 155.42523 288.714389 139.909302 288.714389 231.746778"></polygon>
            <polygon id="Path-169-Copy" fill="#432121" points="265.079026 317.382319 265.079026 272.014793 288.714389 276.56534 288.714389 317.382319"></polygon>
        </g>
        <g id="Right-Under" transform="translate(660.100000, 493.885289) scale(-1, 1) translate(-660.100000, -493.885289) translate(482.980000, 318.230578)">
            <polygon id="Path-152" fill="#844545" points="314.856242 339.688499 314.856242 317.470399 269.051333 317.470399 269.051333 273.301099 313.77287 282.213418 313.77287 236.270769 269.051333 227.35845 269.051333 155.569364 248.165449 150.733153 248.165449 309.693116 7.80575502 304.051749 7.80575502 339.124993"></polygon>
            <polygon id="Path-170" fill="#432121" points="16.4031451 98.9292834 248.325392 150.373677 248.325392 311.065502 0.512421134 305.508184"></polygon>
            <polygon id="Path-150" fill="#6A3434" points="270.346443 155.829379 3.81567845 96.7333583 10.5521445 0.0491945748 353.606379 96.7333583"></polygon>
            <polygon id="Path-171" fill="#B75C5C" points="112.097476 338.56376 122.191085 34.1529306 101.822707 62.4301832 92.4265627 338.56376"></polygon>
            <polygon id="Path-171-Copy" fill="#B75C5C" points="348.263167 351.173745 348.263167 95.4636493 330.185576 108.349781 330.185576 339.688499"></polygon>
            <polygon id="Path-151" fill="#944D4D" points="314.884503 339.688499 314.884503 167.999018 291.249139 140.216724 291.249139 339.688499"></polygon>
            <polygon id="Path-169" fill="#432121" points="268.359026 227.56523 268.359026 155.766745 291.994389 140.216724 291.994389 232.255994"></polygon>
            <polygon id="Path-169-Copy" fill="#432121" points="268.359026 318.079702 268.359026 272.61249 291.994389 277.173036 291.994389 318.079702"></polygon>
        </g>
        <g id="Left-Side" transform="translate(-46.000000, 12.000000)">
            <polygon id="Path-136" fill="url(#linearGradient-4)" points="398.187856 121.116096 398.187856 644.44412 350.908551 644.44412 350.908551 401.18153 172.732196 352.574184 165.448833 643.803541 111.362712 644.44412 119.967124 338.179625 13.12 309.031229 13.12 242.569097 382.500713 344.720436 382.500713 280.309656 13.12 142.606635 19.68 65.0537977 382.500713 221.629544 382.500713 188.30118 31 20.6661046 30 0 382.500713 170.048137 336.245644 147.000313 382.500713 114.35663"></polygon>
            <g id="Upper-WIndows" transform="translate(26.480000, 18.120911)">
                <polygon id="Path-153" fill="#552727" points="355.650901 203.660006 355.650901 169.879003 14.52 3.63288364 6.52 58.0173693"></polygon>
                <polygon id="Path-154-Copy" fill="#E6FEFF" points="329.995304 160.23477 328.067404 188.419576 304.686844 178.801879 306.568792 148.458342"></polygon>
                <polygon id="Path-154-Copy-2" fill="#E6FEFF" points="305.010693 148.235734 302.971637 177.991244 279.436102 167.515783 281.283889 135.989351"></polygon>
                <polygon id="Path-154-Copy-3" fill="#E6FEFF" points="279.534591 134.894276 277.495535 166.433596 253.96 155.958135 255.807787 122.647892"></polygon>
                <polygon id="Path-154-Copy-4" fill="#E6FEFF" points="254.294647 122.319479 252.072629 155.33276 228.67979 145.644454 230.577711 110.324865"></polygon>
                <polygon id="Path-154-Copy-5" fill="#E6FEFF" points="228.849129 109.804826 227.131463 144.809357 203.729385 134.408989 205.017921 98.5664418"></polygon>
                <polygon id="Path-154-Copy-6" fill="#E6FEFF" points="203.597261 97.7746788 202.12358 133.706517 178.52 123.706122 179.808536 86.0797639"></polygon>
                <polygon id="Path-154-Copy-7" fill="#E6FEFF" points="178.177261 85.2880009 176.70358 123.00365 153.1 113.003255 154.388536 73.593086"></polygon>
                <polygon id="Path-154-Copy-8" fill="#E6FEFF" points="152.757261 72.8013229 151.28358 112.300783 127.68 102.300389 128.968536 61.1064081"></polygon>
                <polygon id="Path-154-Copy-9" fill="#E6FEFF" points="127.247642 61.1064081 125.86358 101.597917 102.26 91.5975219 103.548536 50.4035413"></polygon>
                <polygon id="Path-154-Copy-10" fill="#E6FEFF" points="101.827642 49.3158516 100.44358 90.8950498 76.84 80.8946551 78.1285364 38.6129848"></polygon>
                <polygon id="Path-154-Copy-11" fill="#E6FEFF" points="76.4076418 37.5252951 75.0235804 80.1921831 51.42 70.1917884 52.7085364 26.8224283"></polygon>
                <polygon id="Path-154-Copy-12" fill="#E6FEFF" points="50.9876418 24.8428331 49.6035804 68.5974107 26 58.597016 27.2885364 14.1399663"></polygon>
                <polygon id="Path-154-Copy-27" fill="#E6FEFF" points="24.9876418 12.8782462 23.6035804 57.7205136 -4.26325641e-13 47.7201189 1.28853636 0"></polygon>
                <polygon id="Path-154" fill="#E6FEFF" points="353.754514 171.437298 353.073265 199.50353 329.629821 188.889607 331.172719 160.665959"></polygon>
            </g>
            <g id="Lower-Windows" transform="translate(0.000000, 137.201180)">
                <polygon id="Path-153-Copy" fill="#552727" points="382.465828 207.378016 382.465828 142.214362 0.520157266 0.447128376 4.60690997 102.140712"></polygon>
                <polygon id="Path-154-Copy-13" fill="#E6FEFF" points="380.754293 145.040742 380.754293 203.60786 350.914493 195.213223 354.249661 134.428382"></polygon>
                <polygon id="Path-154-Copy-14" fill="#E6FEFF" points="352.473466 134.004126 348.748627 194.714427 324.227204 187.706754 328.552151 125.042974"></polygon>
                <polygon id="Path-154-Copy-15" fill="#E6FEFF" points="326.524001 124.01697 322.758776 186.941105 298.337428 179.6968 302.734847 115.055818"></polygon>
                <polygon id="Path-154-Copy-16" fill="#E6FEFF" points="301.0138 114.561558 296.479689 178.819655 272.24 171.747397 276.895559 105.243406"></polygon>
                <polygon id="Path-154-Copy-17" fill="#E6FEFF" points="274.7738 104.752048 270.393457 171.350138 246 164.613603 250.655559 95.4338954"></polygon>
                <polygon id="Path-154-Copy-18" fill="#E6FEFF" points="248.5338 94.9410867 244.087976 164.392972 219.561773 157.58137 223.927538 86.3236146"></polygon>
                <polygon id="Path-154-Copy-19" fill="#E6FEFF" points="221.672027 85.3213507 217.226203 157.448952 192.7 150.637351 197.065765 76.7038786"></polygon>
                <polygon id="Path-154-Copy-20" fill="#E6FEFF" points="195.432027 75.5103895 190.986203 150.313708 166.46 143.502106 170.825765 66.8929174"></polygon>
                <polygon id="Path-154-Copy-21" fill="#E6FEFF" points="169.192027 66.5913339 164.746203 143.178463 140.22 136.366862 144.585765 57.0819562"></polygon>
                <polygon id="Path-154-Copy-22" fill="#E6FEFF" points="142.950602 55.8884671 138.630827 136.043219 114.8 129.231617 119.041985 46.3790894"></polygon>
                <polygon id="Path-154-Copy-23" fill="#E6FEFF" points="117.530602 46.0775059 113.210827 128.907974 89.38 122.096373 93.6219853 37.4600337"></polygon>
                <polygon id="Path-154-Copy-24" fill="#E6FEFF" points="92.1106015 37.1584502 87.790827 121.77273 63.96 114.961128 68.2019853 27.6490725"></polygon>
                <polygon id="Path-154-Copy-25" fill="#E6FEFF" points="66.6906015 27.347489 62.370827 114.637485 38.54 107.825884 42.7819853 18.7300169"></polygon>
            </g>
            <polygon id="Path-6" fill-opacity="0.2" fill="#4A4A4A" points="381.281967 169.345766 382.616288 114.263138 336.225118 147.076298"></polygon>
        </g>
        <g id="Right-Side" transform="translate(642.500000, 333.500000) scale(-1, 1) translate(-642.500000, -333.500000) translate(443.000000, 11.000000)">
            <polygon id="Path-136" fill="url(#linearGradient-4)" points="398.187856 121.116096 398.187856 644.44412 350.908551 644.44412 350.908551 401.18153 172.732196 352.574184 165.448833 643.803541 111.362712 644.44412 119.967124 338.179625 13.12 309.031229 13.12 242.569097 382.500713 344.720436 382.500713 280.309656 13.12 142.606635 19.68 65.0537977 382.500713 221.629544 382.500713 188.30118 31 20.6661046 30 0 382.500713 170.048137 336.245644 147.000313 382.500713 114.35663"></polygon>
            <g id="Upper-WIndows" transform="translate(26.480000, 18.120911)">
                <polygon id="Path-153" fill="#552727" points="355.650901 203.660006 355.650901 169.879003 14.52 3.63288364 6.52 58.0173693"></polygon>
                <polygon id="Path-154-Copy" fill="#E6FEFF" points="329.995304 160.23477 328.067404 188.419576 304.686844 178.801879 306.568792 148.458342"></polygon>
                <polygon id="Path-154-Copy-2" fill="#E6FEFF" points="305.010693 148.235734 302.971637 177.991244 279.436102 167.515783 281.283889 135.989351"></polygon>
                <polygon id="Path-154-Copy-3" fill="#E6FEFF" points="279.534591 134.894276 277.495535 166.433596 253.96 155.958135 255.807787 122.647892"></polygon>
                <polygon id="Path-154-Copy-4" fill="#E6FEFF" points="254.294647 122.319479 252.072629 155.33276 228.67979 145.644454 230.577711 110.324865"></polygon>
                <polygon id="Path-154-Copy-5" fill="#E6FEFF" points="228.849129 109.804826 227.131463 144.809357 203.729385 134.408989 205.017921 98.5664418"></polygon>
                <polygon id="Path-154-Copy-6" fill="#E6FEFF" points="203.597261 97.7746788 202.12358 133.706517 178.52 123.706122 179.808536 86.0797639"></polygon>
                <polygon id="Path-154-Copy-7" fill="#E6FEFF" points="178.177261 85.2880009 176.70358 123.00365 153.1 113.003255 154.388536 73.593086"></polygon>
                <polygon id="Path-154-Copy-8" fill="#E6FEFF" points="152.757261 72.8013229 151.28358 112.300783 127.68 102.300389 128.968536 61.1064081"></polygon>
                <polygon id="Path-154-Copy-9" fill="#E6FEFF" points="127.247642 61.1064081 125.86358 101.597917 102.26 91.5975219 103.548536 50.4035413"></polygon>
                <polygon id="Path-154-Copy-10" fill="#E6FEFF" points="101.827642 49.3158516 100.44358 90.8950498 76.84 80.8946551 78.1285364 38.6129848"></polygon>
                <polygon id="Path-154-Copy-11" fill="#E6FEFF" points="76.4076418 37.5252951 75.0235804 80.1921831 51.42 70.1917884 52.7085364 26.8224283"></polygon>
                <polygon id="Path-154" fill="#E6FEFF" points="353.754514 171.437298 353.073265 199.50353 329.629821 188.889607 331.172719 160.665959"></polygon>
            </g>
            <g id="Lower-Windows" transform="translate(0.000000, 137.201180)">
                <polygon id="Path-153-Copy" fill="#552727" points="382.465828 207.378016 382.465828 142.214362 0.520157266 0.447128376 4.60690997 102.140712"></polygon>
                <polygon id="Path-154-Copy-13" fill="#E6FEFF" points="380.754293 145.040742 380.754293 203.60786 350.914493 195.213223 354.249661 134.428382"></polygon>
                <polygon id="Path-154-Copy-14" fill="#E6FEFF" points="352.473466 134.004126 348.748627 194.714427 324.227204 187.706754 328.552151 125.042974"></polygon>
                <polygon id="Path-154-Copy-15" fill="#E6FEFF" points="326.524001 124.01697 322.758776 186.941105 298.337428 179.6968 302.734847 115.055818"></polygon>
                <polygon id="Path-154-Copy-16" fill="#E6FEFF" points="301.0138 114.561558 296.479689 178.819655 272.24 171.747397 276.895559 105.243406"></polygon>
                <polygon id="Path-154-Copy-17" fill="#E6FEFF" points="274.7738 104.752048 270.393457 171.350138 246 164.613603 250.655559 95.4338954"></polygon>
                <polygon id="Path-154-Copy-18" fill="#E6FEFF" points="248.5338 94.9410867 244.087976 164.392972 219.561773 157.58137 223.927538 86.3236146"></polygon>
                <polygon id="Path-154-Copy-19" fill="#E6FEFF" points="221.672027 85.3213507 217.226203 157.448952 192.7 150.637351 197.065765 76.7038786"></polygon>
                <polygon id="Path-154-Copy-20" fill="#E6FEFF" points="195.432027 75.5103895 190.986203 150.313708 166.46 143.502106 170.825765 66.8929174"></polygon>
                <polygon id="Path-154-Copy-21" fill="#E6FEFF" points="169.192027 66.5913339 164.746203 143.178463 140.22 136.366862 144.585765 57.0819562"></polygon>
                <polygon id="Path-154-Copy-22" fill="#E6FEFF" points="142.950602 55.8884671 138.630827 136.043219 114.8 129.231617 119.041985 46.3790894"></polygon>
                <polygon id="Path-154-Copy-23" fill="#E6FEFF" points="117.530602 46.0775059 113.210827 128.907974 89.38 122.096373 93.6219853 37.4600337"></polygon>
                <polygon id="Path-154-Copy-24" fill="#E6FEFF" points="92.1106015 37.1584502 87.790827 121.77273 63.96 114.961128 68.2019853 27.6490725"></polygon>
            </g>
            <polygon id="Path-6" fill-opacity="0.2" fill="#4A4A4A" points="381.281967 169.345766 382.616288 114.263138 336.225118 147.076298"></polygon>
        </g>
        <g id="Left-Bush" transform="translate(-6.000000, 532.000000)">
            <path d="M45.7500636,0.592780849 C59.7135475,-1.49123028 75.9787888,3.37484272 94.5457872,15.1909998 C113.842056,12.8695616 130.042323,12.8695616 143.146586,15.1909998 C156.25085,17.5124381 167.722215,25.0112429 177.560681,37.6874142 C195.340547,38.5670167 208.760339,45.9927483 217.820056,59.9646089 C226.879774,73.9364696 220.102901,88.5255365 197.489437,103.73181 C187.758659,107.244661 173.640681,110.836401 155.135502,114.507029 C136.630324,118.177657 116.433752,118.177657 94.5457872,114.507029 L23.78,114.507029 L7.44472547,28.457191 C19.0181335,11.9649287 31.7865796,2.67679198 45.7500636,0.592780849 Z" id="Path-155" fill="#2C5340"></path>
            <path d="M82.6726773,6.6386137 C105.26006,8.50510221 120.541152,15.1825643 128.515955,26.6709998 C136.136274,26.1926631 146.498565,27.1142139 159.602829,29.4356522 C172.707092,31.7570905 180.329004,36.9774214 182.468564,45.0966451 C204.531549,47.8426716 217.14234,57.051685 220.300935,72.7236854 C223.45953,88.3956857 220.302613,100.189593 210.830185,108.105408 L21.3847255,108.105408 L21.3847255,39.937191 C39.6559776,15.8716509 60.0852949,4.77212519 82.6726773,6.6386137 Z" id="Path-155-Copy" fill="#30694C"></path>
            <path d="M30.5370225,16.7600401 C56.5139231,14.9460543 74.081517,22.177925 83.2398042,38.4556522 C98.4653013,30.4250325 112.630182,27.5704417 125.734445,29.89188 C138.838709,32.2133183 149.971211,39.2355125 159.131952,50.9584628 C181.258666,44.2600029 193.901321,48.7467731 197.059916,64.4187734 C197.820934,68.1947146 196.041693,79.8648762 197.059916,79.8648762 C198.137798,79.8648762 214.054541,87.9888364 211.514012,98.4 C209.820327,105.340776 203.305718,111.582579 191.970185,117.125408 L2.52472547,117.125408 L2.52472547,48.957191 C-4.77731055,29.3064094 4.56012178,18.5740258 30.5370225,16.7600401 Z" id="Path-155-Copy-2" fill="#559F7A"></path>
        </g>
        <g id="Left-Bush-Copy" transform="translate(673.800000, 599.580000) scale(-1, 1) translate(-673.800000, -599.580000) translate(551.620000, 535.620000)">
            <path d="M53.1300636,0.592780849 C67.0935475,-1.49123028 83.3587888,3.37484272 101.925787,15.1909998 C121.222056,12.8695616 137.422323,12.8695616 150.526586,15.1909998 C163.63085,17.5124381 175.102215,25.0112429 184.940681,37.6874142 C203.478425,34.0772134 217.277156,39.2580433 226.336873,53.2299039 C229.434529,58.0070955 228.23582,74.7659291 229.819075,78.8732557 C231.40233,82.9805823 247.456398,82.0278966 243.397392,103.390235 C240.691389,117.631794 232.848934,123.774956 219.870026,121.819719 C197.566031,121.203605 177.161444,122.730863 158.656265,126.401491 C140.151087,130.072119 121.240927,126.107298 101.925787,114.507029 L31.16,114.507029 L14.8247255,28.457191 C26.3981335,11.9649287 39.1665796,2.67679198 53.1300636,0.592780849 Z" id="Path-155" fill="#2C5340"></path>
            <path d="M90.0526773,13.3082681 C112.64006,15.0520679 127.921152,21.2906044 135.895955,32.0238777 C140.836737,28.368705 149.859259,27.6255409 162.963523,29.7943855 C176.067786,31.9632301 185.029467,38.4445554 189.848564,49.2383614 C208.102835,47.3320953 218.809267,53.6998834 221.967862,68.3417258 C224.260696,78.9702858 215.635688,86.6294678 215.749369,99.0119314 C215.777986,102.128962 218.941652,108.211652 225.240366,117.26 L28.7647255,108.105408 C4.33166343,78.4236571 -4.466597,55.3667581 2.36994418,38.9347113 C9.20648535,22.5026645 26.7873515,19.4558893 55.1125426,29.7943855 C68.8896944,18.0689617 80.536406,12.5735893 90.0526773,13.3082681 Z" id="Path-155-Copy" fill="#30694C"></path>
            <path d="M35.814186,38.8538749 C61.7910866,37.3043635 80.059626,40.9949034 90.6198042,49.9254945 C99.1700621,40.5614361 109.997323,36.8708962 123.101586,38.8538749 C136.20585,40.8368536 145.159212,47.1383778 149.961674,57.7584474 C155.406505,49.9351381 162.843984,46.9279903 172.274109,48.7370038 C186.419297,51.4505241 189.371549,64.045329 189.902402,64.574231 C190.433255,65.103133 198.504212,63.0605304 204.439916,72.1032614 C206.494917,75.233946 203.421693,85.2973632 204.439916,85.2973632 C205.517798,85.2973632 220.192547,85.1348216 218.894012,101.130115 C218.028323,111.793644 211.513713,117.125408 199.350185,117.125408 L9.90472547,117.125408 L9.90472547,58.8959367 C1.20079845,47.0840736 9.83728529,40.4033863 35.814186,38.8538749 Z" id="Path-155-Copy-2" fill="#559F7A"></path>
        </g>
        <g id="Left-Fries" transform="translate(23.000000, 206.000000)">
            <polygon id="Path-162" fill="url(#linearGradient-5)" points="367.621393 217.625443 165.407 365.592937 72.16 451 98.6631503 451 171.263197 370.921466 376.639899 230.583896"></polygon>
            <polygon id="Path-158" fill="url(#linearGradient-6)" points="352.505695 90.879133 362.690582 102.824805 192.432906 377.514481 261.996774 457.56 233.671278 457.56 164 372.249334"></polygon>
            <polygon id="Path-157" fill="url(#linearGradient-7)" points="241.837511 450.18 157.065039 382.111714 49.2 16.8178208 67.7567906 10.66 171.813698 382.111714 259.12 450.18"></polygon>
            <path d="M176.812566,104.14 L172.100575,362.814478 C140.344435,426.348443 124.804633,458.203162 125.481168,458.378634 C125.619629,458.414547 129.986192,457.742119 138.580857,456.361352 L181.170288,365.166881 L190.24,104.14 L176.812566,104.14 Z" id="Path-161" fill="url(#linearGradient-8)"></path>
            <polygon id="Path-160" fill="url(#linearGradient-9)" points="132.84 0 168.809948 353.108632 183.431961 457.56 192.7 451.00251 181.084118 353.108632 149.716565 0"></polygon>
            <polygon id="Path-156" fill="url(#linearGradient-10)" points="322.26 451.82 7.54374657 189.42 -3.63797881e-12 205.462776 304.420607 451.82"></polygon>
            <polygon id="Path-159" fill="url(#linearGradient-11)" points="190.25238 399.34 246.82 49.2 232.642091 55.633586 175.48 386.971679"></polygon>
        </g>
        <g id="Right-Fries" transform="translate(415.000000, 224.000000)">
            <polygon id="Path-163" fill="url(#linearGradient-12)" points="210.182925 354.385197 188.300513 427.22 210.182925 427.22 223.04 354.385197 151.248986 0 135.3 4.75455095"></polygon>
            <polygon id="Path-164" fill="url(#linearGradient-13)" points="332.92 425.651002 170.086699 334.978977 51.5858306 58.22 38.54 61.9348247 165.580258 346.166998 310.602204 428.04"></polygon>
            <polygon id="Path-165" fill="url(#linearGradient-14)" points="0.488613711 141.566809 282.606595 432.96 295.2 428.056271 8.24881125 131.544631"></polygon>
            <polygon id="Path-167" fill="url(#linearGradient-15)" points="354.200781 99.22 200.970088 339.022905 82.82 428.04 99.7138664 428.04 214.589195 342.094618 374.74 99.22"></polygon>
            <polygon id="Path-166" fill="url(#linearGradient-16)" points="208.27902 15.58 159.9 345.691876 353.811223 418.2 386.22 418.2 185.077308 334.718934 225.657598 15.58"></polygon>
            <polygon id="Path-168" fill="url(#linearGradient-17)" points="112.34 424.871031 326.00258 39.9768367 353.42 34.44 128.011867 427.22"></polygon>
        </g>
        <g id="Group-2" transform="translate(362.000000, 551.000000)">
            <g id="Diploma" transform="translate(61.000000, 18.000000)">
                <path d="M2.77450031,7.10609908 L18.9038424,13.7844616 C20.557278,14.2582364 21.8322139,13.8138259 22.7286501,12.4512302 C23.6250863,11.0886345 23.5358102,10.0624784 22.4608219,9.37276185 L3.84516845,0.649427251 C2.19107716,0.455207579 1.20894896,1.24552384 0.898783861,3.02037604 C0.588618761,4.79522823 1.21385758,6.19408436 2.77450031,7.21694442" id="Path-4" fill="#FFFFFF"></path>
                <path d="M1.53567137,4.28471209 C1.88233885,4.88952363 2.12544665,5.13286482 2.26499477,5.01473568 C3.11023429,4.29923035 3.50925462,2.44382685 3.50925462,2.02661795 C3.50925462,1.24582296 2.65140094,1.32513857 1.9967166,2.02661795 C1.56026038,2.49427087 1.64968644,2.97121476 2.26499477,3.45744963" id="Path-5" stroke="#979797" stroke-width="0.5"></path>
            </g>
            <g id="Group-4-Copy-4">
                <path d="M17.9347826,24.6047139 L54.4848955,22.6209677 L51.4981695,48.6867432 C47.6634942,45.6389557 41.9197186,44.3350096 34.2668426,44.7749048 C26.6139667,45.2148001 21.8913914,46.6923614 20.0991169,49.2075887 L17.9347826,24.6047139 Z" id="Path-63" fill="#221407"></path>
                <g id="Head" transform="translate(13.271739, 0.000000)">
                    <path d="M16.2990176,45.4179764 L18.2315752,40.6390438 L26.0831511,40.6390438 L27.3135811,45.2198907 C27.9500943,49.418441 26.1143337,51.6875166 21.8062993,52.0271174 C17.4982649,52.3667182 15.6625043,50.1636712 16.2990176,45.4179764 Z" id="Path-3" fill="#FFBF89"></path>
                    <path d="M21.596308,42.1837861 C28.3061377,42.1837861 33.4035178,40.6937194 35.8532858,32.2947641 C36.7424054,28.718302 36.9558006,20.5070262 36.9558006,18.8702945 C36.9558006,7.46652867 30.6167495,0.887096774 21.596308,0.887096774 C12.5758666,0.887096774 6.58490207,6.49038477 6.17840856,17.8822005 C6.17840856,22.9004389 5.73100114,28.6128731 7.58742799,33.3535972 C10.3640351,40.4441694 14.927234,42.1837861 21.596308,42.1837861 Z" id="Oval-9" fill="#FFBF89"></path>
                    <ellipse id="Oval-10" fill="#1A1A1A" cx="14.6029785" cy="23.8640705" rx="1.9076087" ry="2.32862903"></ellipse>
                    <ellipse id="Oval-10-Copy" fill="#1A1A1A" cx="29.3270751" cy="23.8640705" rx="1.9076087" ry="2.32862903"></ellipse>
                    <path d="M12.8632835,32.7914328 C16.8681824,33.5417114 19.7458454,33.9168507 21.4962725,33.9168507 C23.2466996,33.9168507 26.1243626,33.2914121 30.1292615,32.0405348 C29.3888644,35.9308114 26.7059118,37.8759497 22.0804036,37.8759497 C17.4548954,37.8759497 14.382522,36.1811107 12.8632835,32.7914328 Z" id="Path-50" fill="#FFFFFF"></path>
                    <path d="M34.7241434,14.1370345 L34.0323622,15.5564077 C32.4867642,15.2682701 31.3782027,15.1967189 30.7066777,15.341754 C30.0351528,15.4867891 29.1351203,15.9919796 28.0065802,16.8573255 L26.559578,16.2629573 C27.6362055,14.7359337 28.7924835,13.7964069 30.0284119,13.4443768 C31.2643403,13.0923468 32.8295841,13.3232327 34.7241434,14.1370345 Z" id="Path-53-Copy" fill="#3C230D" transform="translate(30.641861, 15.071128) rotate(-336.000000) translate(-30.641861, -15.071128) "></path>
                    <path d="M17.2780516,14.7462038 L16.5862705,16.1655241 C15.0406724,15.8773973 13.9321109,15.8058487 13.260586,15.9508784 C12.5890611,16.0959081 11.6890286,16.6010798 10.5604884,17.4663934 L9.11348629,16.8720475 C10.1901138,15.3450807 11.3463917,14.4055888 12.5823201,14.0535719 C13.8182485,13.701555 15.3834924,13.9324323 17.2780516,14.7462038 Z" id="Path-53" fill="#3C230D" transform="translate(13.195769, 15.680262) rotate(-2.000000) translate(-13.195769, -15.680262) "></path>
                    <path d="M19.8881282,27.8560059 C20.5956736,28.4602509 21.1276845,28.7623733 21.4841608,28.7623733 C21.8406372,28.7623733 22.372648,28.4602509 23.0801935,27.8560059" id="Path-54" stroke="#000000" stroke-width="0.656"></path>
                    <g id="Group" transform="translate(6.094438, 19.130942)" fill="url(#linearGradient-18)">
                        <path d="M1.72092804,0.966308127 C4.72892133,0.413616055 6.9924803,0.123676816 8.51160494,0.0964904081 C10.0307296,0.0693040006 11.742665,0.288097393 13.6474111,0.752870586 L16.8565778,0.752870586 C19.0047579,0.315283801 20.8451283,0.0964904081 22.3776889,0.0964904081 C23.9102495,0.0964904081 26.3559445,0.386429648 29.7147738,0.966308127 C31.1398105,1.16705712 31.8523288,1.31564733 31.8523288,1.41207874 C31.8523288,1.49161098 33.2190585,2.73128915 32.2497203,4.00237741 C32.1124089,4.18243316 31.2674267,4.29129275 29.7147738,4.32895617 C29.426525,4.42033454 29.2597297,4.52114075 29.2143878,4.6313748 C29.1844523,4.70415328 28.9933138,5.88370768 28.536861,7.25905629 C28.3802515,7.73094011 28.0715003,8.45943917 27.6106073,9.44455349 C27.0256813,10.3755038 25.6585329,10.7695159 23.5091622,10.6265899 C20.2851062,10.412201 20.2526932,10.1768732 19.5688278,9.82368219 C18.8849625,9.4704912 18.1716297,9.09589283 17.315703,6.71586443 C16.7450852,5.12917883 16.3824519,3.87342791 16.2278029,2.94861168 L15.0429346,2.94861168 C14.6706872,4.59684211 14.3235306,5.78844082 14.0014649,6.52340782 C13.5183663,7.62585833 13.142234,8.8964161 12.3884263,9.36359977 C11.6346185,9.83078344 10.8838416,10.6265899 7.7340742,10.6265899 C5.63422927,10.6265899 4.28364403,10.2325778 3.68231848,9.44455349 C3.27526688,8.74663689 3.00352608,8.20901042 2.86709605,7.83167409 C2.73066603,7.45433775 2.47864489,6.5433504 2.11103264,5.09871204 L1.72092804,4.32895617 C0.827159243,4.17289076 0.380274845,4.06403117 0.380274845,4.00237741 C0.380274845,3.94474217 -0.0414921872,3.13075161 0.739563952,1.41207874 C0.775869177,1.33219101 1.10299054,1.1836008 1.72092804,0.966308127 Z M3.74844869,2.58371019 C3.36063983,3.3223623 3.25920823,4.17306325 3.50337293,6.15311091 C3.66614939,7.47314269 4.08068274,8.44915394 4.74697297,9.08114466 C5.73159462,9.51991199 6.74115288,9.73929566 7.77564774,9.73929566 C9.32739002,9.73929566 9.89086394,9.86779092 11.1995717,9.08114466 C12.5082795,8.2944984 12.8278203,7.59101275 13.2692016,6.43719592 C13.7105829,5.28337909 14.1170969,3.43534359 13.5150365,2.58371019 C12.9129762,1.73207678 12.2444083,1.28325977 8.54185113,1.28325977 C4.83929395,1.28325977 4.13625754,1.84505808 3.74844869,2.58371019 Z M27.5872343,2.67328553 C27.1994255,1.93463342 26.4963891,1.37283511 22.7938319,1.37283511 C19.0912747,1.37283511 18.4227068,1.82165213 17.8206465,2.67328553 C17.2185861,3.52491893 17.6251001,5.37295444 18.0664815,6.52677127 C18.5078628,7.6805881 18.81657,8.31805909 20.1252778,9.10470535 C21.4339856,9.8913516 21.4688436,9.828871 23.5600353,9.828871 C24.9541631,9.828871 25.9637213,9.60948733 26.58871,9.17072 C27.2550003,8.53872928 27.6695336,7.56271803 27.8323101,6.24268626 C28.0764748,4.2626386 27.9750432,3.41193764 27.5872343,2.67328553 Z" id="Combined-Shape"></path>
                    </g>
                    <path d="M28.5835604,9.18845606 C35.8418161,16.3268681 37.147059,18.1557987 37.147059,29.0666676 C37.147059,40.8746319 32.3343581,55.3418972 35.7441939,56.1171438 C35.8075687,56.1315524 43.2462207,56.2611269 44.4858824,53.5235524 C44.6734209,50.760362 43.8052981,39.5533187 41.8815141,19.9024226 C41.3974821,15.5895678 40.4649699,12.2838604 39.0839777,9.9853003 C35.1535544,3.44339967 31.9019438,3.01799047 28.5835604,2.07328807 C25.964209,1.44616899 27.5854509,8.20682662 28.5835604,9.18845606 Z" id="Path-52" fill="url(#linearGradient-19)"></path>
                    <path d="M0.961750852,1.99339112 C-0.700986255,6.95203491 1.35199338,10.0642833 7.12068976,11.3301364 C13.9275861,12.8238067 23.1717298,19.6834978 23.8824365,26.3988014 C24.7330178,34.4357471 21.5671832,48.5987275 20.1321906,56.5035146 C19.843798,58.0921513 25.236317,58.8761299 26.4634126,55.1784042 C27.3166833,52.6071613 29.2710035,47.2648839 29.2710035,40.3176396 C29.2710035,32.4688105 29.7241967,17.1638171 26.3377031,11.3301364 C20.5314242,1.32805724 12.0727734,-1.78419118 0.961750852,1.99339112 Z" id="Path-52-Copy" fill="url(#linearGradient-20)" transform="translate(14.847458, 29.134301) scale(-1, 1) translate(-14.847458, -29.134301) "></path>
                </g>
                <path d="M26.0926207,45.3554107 C22.8400358,44.5409913 19.9578924,42.1822928 17.4461904,38.2793151 C13.6786375,32.4248487 12.0818365,23.0270831 12.0393066,23.5177199 C12.02273,23.7089521 2.95893862,25.8295501 5.96270013,26.4374153 C6.27106377,26.4998182 9.32445816,39.1166557 12.0393066,43.9270151 C14.754155,48.7373744 25.9993222,57.8484574 26.0926207,58.9791773 C26.2001222,60.2820287 25.2577897,76.6635453 23.2656233,108.123727 C28.5806463,108.783178 32.7657131,109.112903 35.820824,109.112903 C38.8759348,109.112903 43.8988372,107.982188 50.8895311,105.720757 L47.7112405,58.9791773 C49.494624,57.1303531 52.7630322,53.6268878 57.5164653,48.4687812 C62.2698984,43.3106746 67.1428627,37.7014386 72.1353583,31.6410731 L64.6141127,28.7213778 C59.4636554,35.093336 56.2111164,38.8259428 54.8564955,39.9191982 C53.5018747,41.0124536 50.270161,42.8245244 45.1613543,45.3554107 C42.0196703,44.8849416 40.4375488,44.7682918 40.4149898,45.0054614 C40.2315752,46.9337572 36.7890748,51.8835083 35.820824,52.3116086 C34.5663278,52.8662689 30.1393103,47.5775437 29.6481905,45.3554107 C29.5877066,45.0817436 28.4025166,45.0817436 26.0926207,45.3554107 Z" id="Path-55" fill="#303030"></path>
                <polygon id="Path-2" fill="#FFFFFF" points="28.7221986 45.3148909 29.011474 43.5300272 35.4914139 51.9861169 41.1564452 43.5300272 41.4630471 45.3148909 35.4914139 54.1758224"></polygon>
                <path d="M66.1818337,29.340047 C65.7321579,28.4201639 65.4431445,27.776343 65.3147937,27.4085845 C65.117078,26.8420778 64.9837923,26.0545926 65.2107596,25.2167892 C65.3921065,24.5186101 65.8726836,23.9900792 66.4899099,23.5877052 C67.3550336,23.0237252 67.7840796,23.174718 68.2810492,23.273246 C68.7044887,23.6612953 68.7478673,24.1667055 68.4728223,24.6460856 C68.356737,24.8484125 67.6397172,24.7340218 67.137596,25.0184716 C66.8465885,25.1833263 66.7193336,25.8729342 66.7193336,26.0478948 C66.7193336,26.1645352 67.0642273,26.3295987 67.7540147,26.5430853 L73.5965693,29.0866423 C73.6646884,29.2076658 73.4233539,29.5313104 72.8725659,30.057576 C72.3217779,30.5838416 71.4602416,30.8914718 70.2879571,30.9804666 L66.1818337,29.340047 Z" id="Path-183" fill="#FFBF89"></path>
                <path d="M70.3211851,21.0357932 C70.6424868,21.2729698 70.7110056,21.7499792 70.6424868,21.964584 C70.3147643,22.9910295 68.9927629,23.5623652 69.2516579,24.0307828 C69.4720731,24.4295789 70.3264741,24.1921466 71.814861,23.3184859 C71.5793221,23.9418689 71.3798165,24.3347225 71.2163443,24.4970467 C70.6518697,25.0575569 70.1374456,25.3359391 70.4865152,25.5822518 C70.8345993,25.8278691 71.1838218,25.665914 72.0718658,25.2203897 C72.3314485,25.0901592 72.7671437,24.6508665 73.3789513,23.9025117 C73.3454388,24.3964526 73.2749223,24.7591303 73.1674017,24.990545 C72.8726936,25.6248401 72.3297433,26.1867929 72.5087995,26.315331 C72.6987734,26.4517065 73.3732781,26.3684861 73.978095,25.6636511 C74.1629017,25.4482831 74.3913156,24.9698702 74.6633367,24.2284124 C74.7940587,24.5856732 74.8443744,24.8397174 74.8142837,24.990545 C74.7691477,25.2167864 74.4103304,25.8980335 74.6633367,26.15355 C74.9298448,26.4227025 75.3504663,26.1515898 75.9252012,25.3402119 C76.3377033,24.3466296 76.3995427,23.7571302 76.1107194,23.5717137 C75.8298057,23.3913751 74.503877,22.1413022 70.3211851,20.6651742 C69.5413896,20.7168227 69.9584605,20.9545961 70.3211851,21.0357932 Z" id="Path-184" fill="#FFBF89"></path>
                <path d="M10.8572585,23.8648741 C10.7341652,22.4058857 10.7341652,21.542119 10.8572585,21.2735742 C12.2452705,18.2454368 13.3014606,17.6279908 12.8186743,16.7707881 C11.9981609,15.3139402 10.5507875,18.7475878 10.0133481,17.9221553 C9.47590867,17.0967228 11.4085302,10.676432 10.0133481,9.93310594 C9.08322668,9.4375552 8.28841866,11.1888327 7.62892402,15.1869385 C7.01780644,10.6548685 6.24915932,8.38883346 5.32298266,8.38883346 C4.39680601,8.38883346 4.22568755,10.8306543 4.80962729,15.7142961 C2.95125752,12.1380781 1.58536389,10.6971909 0.711946406,11.3916345 C-0.161471079,12.0860781 0.63660215,13.8791293 3.10616609,16.7707881 C1.01823488,16.2573477 -0.00108604632,16.2573477 0.0482033253,16.7707881 C0.130481514,17.6278682 2.25561806,18.6189131 3.43758802,19.6897878 C4.21907688,20.3978232 3.87479498,20.8483747 4.80962729,22.3650206 C5.24840806,23.0768863 5.70190989,24.1299708 6.17013279,25.524274 L10.8572585,23.8648741 Z" id="Path-185" fill="#FFBF89"></path>
            </g>
        </g>
        <g id="Hat" transform="translate(391.660746, 497.072231) rotate(-24.000000) translate(-391.660746, -497.072231) translate(362.160746, 480.572231)">
            <path d="M21.3412741,29.3759395 C18.4954036,32.1023675 16.5647775,32.8826403 15.5493956,31.716758 C12.8472717,28.6141236 12.7798446,26.4312421 9.00301875,25.8626757 C7.33062809,25.6109127 5.44509929,26.0430185 3.34643235,27.158993 C2.63909812,27.5351209 1.52362067,28.274103 0,29.3759395 L1.42954451,31.1389169 L3.34643235,28.3401835" id="Path-182" stroke="#FFD435" stroke-width="0.82"></path>
            <polygon id="Path-180" fill="#2A2A2A" points="17.7461498 31.3307983 21.0864822 0.126050189 57.3384807 0.126050189 58.7117624 28.5863869"></polygon>
            <path d="M29.4485554,22.3041385 C30.1738139,17.7092545 32.1161533,14.2839985 35.2755737,12.0283706 C38.434994,9.77274269 41.5833435,8.82720828 44.7206221,9.19176736 L50.3094873,11.6435223 L52.6028982,17.5820063 C49.4511406,17.358907 46.8237153,17.7981786 44.7206221,18.8998212 C42.617529,20.0014638 41.0279778,21.7524512 39.9519684,24.1527833 L29.4485554,22.3041385 Z" id="Path-181" fill="#555555"></path>
        </g>
    </g>
</svg>